<?xml version="1.0" encoding="utf-8" standalone="no"?>
<!DOCTYPE svg PUBLIC "-//W3C//DTD SVG 1.1//EN"
  "http://www.w3.org/Graphics/SVG/1.1/DTD/svg11.dtd">
<!-- Created with matplotlib (https://matplotlib.org/) -->
<svg height="353.194875pt" version="1.1" viewBox="0 0 417.3 353.194875" width="417.3pt" xmlns="http://www.w3.org/2000/svg" xmlns:xlink="http://www.w3.org/1999/xlink">
 <metadata>
  <rdf:RDF xmlns:cc="http://creativecommons.org/ns#" xmlns:dc="http://purl.org/dc/elements/1.1/" xmlns:rdf="http://www.w3.org/1999/02/22-rdf-syntax-ns#">
   <cc:Work>
    <dc:type rdf:resource="http://purl.org/dc/dcmitype/StillImage"/>
    <dc:date>2020-11-03T13:15:05.374747</dc:date>
    <dc:format>image/svg+xml</dc:format>
    <dc:creator>
     <cc:Agent>
      <dc:title>Matplotlib v3.3.2, https://matplotlib.org/</dc:title>
     </cc:Agent>
    </dc:creator>
   </cc:Work>
  </rdf:RDF>
 </metadata>
 <defs>
  <style type="text/css">*{stroke-linecap:butt;stroke-linejoin:round;}</style>
 </defs>
 <g id="figure_1">
  <g id="patch_1">
   <path d="M 0 353.194875 
L 417.3 353.194875 
L 417.3 0 
L 0 0 
z
" style="fill:#ffffff;"/>
  </g>
  <g id="axes_1">
   <g id="patch_2">
    <path d="M 40.603125 315.638625 
L 397.723125 315.638625 
L 397.723125 49.526625 
L 40.603125 49.526625 
z
" style="fill:#ffffff;"/>
   </g>
   <g id="matplotlib.axis_1">
    <g id="xtick_1">
     <g id="line2d_1">
      <path clip-path="url(#p58a7525887)" d="M 64.411125 315.638625 
L 64.411125 49.526625 
" style="fill:none;stroke:#b0b0b0;stroke-linecap:square;stroke-width:0.8;"/>
     </g>
     <g id="line2d_2">
      <defs>
       <path d="M 0 0 
L 0 3.5 
" id="m7f4fde7a05" style="stroke:#000000;stroke-width:0.8;"/>
      </defs>
      <g>
       <use style="stroke:#000000;stroke-width:0.8;" x="64.411125" xlink:href="#m7f4fde7a05" y="315.638625"/>
      </g>
     </g>
     <g id="text_1">
      <!-- 2 -->
      <g transform="translate(61.229875 330.237062)scale(0.1 -0.1)">
       <defs>
        <path d="M 19.1875 8.296875 
L 53.609375 8.296875 
L 53.609375 0 
L 7.328125 0 
L 7.328125 8.296875 
Q 12.9375 14.109375 22.625 23.890625 
Q 32.328125 33.6875 34.8125 36.53125 
Q 39.546875 41.84375 41.421875 45.53125 
Q 43.3125 49.21875 43.3125 52.78125 
Q 43.3125 58.59375 39.234375 62.25 
Q 35.15625 65.921875 28.609375 65.921875 
Q 23.96875 65.921875 18.8125 64.3125 
Q 13.671875 62.703125 7.8125 59.421875 
L 7.8125 69.390625 
Q 13.765625 71.78125 18.9375 73 
Q 24.125 74.21875 28.421875 74.21875 
Q 39.75 74.21875 46.484375 68.546875 
Q 53.21875 62.890625 53.21875 53.421875 
Q 53.21875 48.921875 51.53125 44.890625 
Q 49.859375 40.875 45.40625 35.40625 
Q 44.1875 33.984375 37.640625 27.21875 
Q 31.109375 20.453125 19.1875 8.296875 
z
" id="DejaVuSans-50"/>
       </defs>
       <use xlink:href="#DejaVuSans-50"/>
      </g>
     </g>
    </g>
    <g id="xtick_2">
     <g id="line2d_3">
      <path clip-path="url(#p58a7525887)" d="M 112.027125 315.638625 
L 112.027125 49.526625 
" style="fill:none;stroke:#b0b0b0;stroke-linecap:square;stroke-width:0.8;"/>
     </g>
     <g id="line2d_4">
      <g>
       <use style="stroke:#000000;stroke-width:0.8;" x="112.027125" xlink:href="#m7f4fde7a05" y="315.638625"/>
      </g>
     </g>
     <g id="text_2">
      <!-- 4 -->
      <g transform="translate(108.845875 330.237062)scale(0.1 -0.1)">
       <defs>
        <path d="M 37.796875 64.3125 
L 12.890625 25.390625 
L 37.796875 25.390625 
z
M 35.203125 72.90625 
L 47.609375 72.90625 
L 47.609375 25.390625 
L 58.015625 25.390625 
L 58.015625 17.1875 
L 47.609375 17.1875 
L 47.609375 0 
L 37.796875 0 
L 37.796875 17.1875 
L 4.890625 17.1875 
L 4.890625 26.703125 
z
" id="DejaVuSans-52"/>
       </defs>
       <use xlink:href="#DejaVuSans-52"/>
      </g>
     </g>
    </g>
    <g id="xtick_3">
     <g id="line2d_5">
      <path clip-path="url(#p58a7525887)" d="M 159.643125 315.638625 
L 159.643125 49.526625 
" style="fill:none;stroke:#b0b0b0;stroke-linecap:square;stroke-width:0.8;"/>
     </g>
     <g id="line2d_6">
      <g>
       <use style="stroke:#000000;stroke-width:0.8;" x="159.643125" xlink:href="#m7f4fde7a05" y="315.638625"/>
      </g>
     </g>
     <g id="text_3">
      <!-- 6 -->
      <g transform="translate(156.461875 330.237062)scale(0.1 -0.1)">
       <defs>
        <path d="M 33.015625 40.375 
Q 26.375 40.375 22.484375 35.828125 
Q 18.609375 31.296875 18.609375 23.390625 
Q 18.609375 15.53125 22.484375 10.953125 
Q 26.375 6.390625 33.015625 6.390625 
Q 39.65625 6.390625 43.53125 10.953125 
Q 47.40625 15.53125 47.40625 23.390625 
Q 47.40625 31.296875 43.53125 35.828125 
Q 39.65625 40.375 33.015625 40.375 
z
M 52.59375 71.296875 
L 52.59375 62.3125 
Q 48.875 64.0625 45.09375 64.984375 
Q 41.3125 65.921875 37.59375 65.921875 
Q 27.828125 65.921875 22.671875 59.328125 
Q 17.53125 52.734375 16.796875 39.40625 
Q 19.671875 43.65625 24.015625 45.921875 
Q 28.375 48.1875 33.59375 48.1875 
Q 44.578125 48.1875 50.953125 41.515625 
Q 57.328125 34.859375 57.328125 23.390625 
Q 57.328125 12.15625 50.6875 5.359375 
Q 44.046875 -1.421875 33.015625 -1.421875 
Q 20.359375 -1.421875 13.671875 8.265625 
Q 6.984375 17.96875 6.984375 36.375 
Q 6.984375 53.65625 15.1875 63.9375 
Q 23.390625 74.21875 37.203125 74.21875 
Q 40.921875 74.21875 44.703125 73.484375 
Q 48.484375 72.75 52.59375 71.296875 
z
" id="DejaVuSans-54"/>
       </defs>
       <use xlink:href="#DejaVuSans-54"/>
      </g>
     </g>
    </g>
    <g id="xtick_4">
     <g id="line2d_7">
      <path clip-path="url(#p58a7525887)" d="M 207.259125 315.638625 
L 207.259125 49.526625 
" style="fill:none;stroke:#b0b0b0;stroke-linecap:square;stroke-width:0.8;"/>
     </g>
     <g id="line2d_8">
      <g>
       <use style="stroke:#000000;stroke-width:0.8;" x="207.259125" xlink:href="#m7f4fde7a05" y="315.638625"/>
      </g>
     </g>
     <g id="text_4">
      <!-- 8 -->
      <g transform="translate(204.077875 330.237062)scale(0.1 -0.1)">
       <defs>
        <path d="M 31.78125 34.625 
Q 24.75 34.625 20.71875 30.859375 
Q 16.703125 27.09375 16.703125 20.515625 
Q 16.703125 13.921875 20.71875 10.15625 
Q 24.75 6.390625 31.78125 6.390625 
Q 38.8125 6.390625 42.859375 10.171875 
Q 46.921875 13.96875 46.921875 20.515625 
Q 46.921875 27.09375 42.890625 30.859375 
Q 38.875 34.625 31.78125 34.625 
z
M 21.921875 38.8125 
Q 15.578125 40.375 12.03125 44.71875 
Q 8.5 49.078125 8.5 55.328125 
Q 8.5 64.0625 14.71875 69.140625 
Q 20.953125 74.21875 31.78125 74.21875 
Q 42.671875 74.21875 48.875 69.140625 
Q 55.078125 64.0625 55.078125 55.328125 
Q 55.078125 49.078125 51.53125 44.71875 
Q 48 40.375 41.703125 38.8125 
Q 48.828125 37.15625 52.796875 32.3125 
Q 56.78125 27.484375 56.78125 20.515625 
Q 56.78125 9.90625 50.3125 4.234375 
Q 43.84375 -1.421875 31.78125 -1.421875 
Q 19.734375 -1.421875 13.25 4.234375 
Q 6.78125 9.90625 6.78125 20.515625 
Q 6.78125 27.484375 10.78125 32.3125 
Q 14.796875 37.15625 21.921875 38.8125 
z
M 18.3125 54.390625 
Q 18.3125 48.734375 21.84375 45.5625 
Q 25.390625 42.390625 31.78125 42.390625 
Q 38.140625 42.390625 41.71875 45.5625 
Q 45.3125 48.734375 45.3125 54.390625 
Q 45.3125 60.0625 41.71875 63.234375 
Q 38.140625 66.40625 31.78125 66.40625 
Q 25.390625 66.40625 21.84375 63.234375 
Q 18.3125 60.0625 18.3125 54.390625 
z
" id="DejaVuSans-56"/>
       </defs>
       <use xlink:href="#DejaVuSans-56"/>
      </g>
     </g>
    </g>
    <g id="xtick_5">
     <g id="line2d_9">
      <path clip-path="url(#p58a7525887)" d="M 254.875125 315.638625 
L 254.875125 49.526625 
" style="fill:none;stroke:#b0b0b0;stroke-linecap:square;stroke-width:0.8;"/>
     </g>
     <g id="line2d_10">
      <g>
       <use style="stroke:#000000;stroke-width:0.8;" x="254.875125" xlink:href="#m7f4fde7a05" y="315.638625"/>
      </g>
     </g>
     <g id="text_5">
      <!-- 10 -->
      <g transform="translate(248.512625 330.237062)scale(0.1 -0.1)">
       <defs>
        <path d="M 12.40625 8.296875 
L 28.515625 8.296875 
L 28.515625 63.921875 
L 10.984375 60.40625 
L 10.984375 69.390625 
L 28.421875 72.90625 
L 38.28125 72.90625 
L 38.28125 8.296875 
L 54.390625 8.296875 
L 54.390625 0 
L 12.40625 0 
z
" id="DejaVuSans-49"/>
        <path d="M 31.78125 66.40625 
Q 24.171875 66.40625 20.328125 58.90625 
Q 16.5 51.421875 16.5 36.375 
Q 16.5 21.390625 20.328125 13.890625 
Q 24.171875 6.390625 31.78125 6.390625 
Q 39.453125 6.390625 43.28125 13.890625 
Q 47.125 21.390625 47.125 36.375 
Q 47.125 51.421875 43.28125 58.90625 
Q 39.453125 66.40625 31.78125 66.40625 
z
M 31.78125 74.21875 
Q 44.046875 74.21875 50.515625 64.515625 
Q 56.984375 54.828125 56.984375 36.375 
Q 56.984375 17.96875 50.515625 8.265625 
Q 44.046875 -1.421875 31.78125 -1.421875 
Q 19.53125 -1.421875 13.0625 8.265625 
Q 6.59375 17.96875 6.59375 36.375 
Q 6.59375 54.828125 13.0625 64.515625 
Q 19.53125 74.21875 31.78125 74.21875 
z
" id="DejaVuSans-48"/>
       </defs>
       <use xlink:href="#DejaVuSans-49"/>
       <use x="63.623047" xlink:href="#DejaVuSans-48"/>
      </g>
     </g>
    </g>
    <g id="xtick_6">
     <g id="line2d_11">
      <path clip-path="url(#p58a7525887)" d="M 302.491125 315.638625 
L 302.491125 49.526625 
" style="fill:none;stroke:#b0b0b0;stroke-linecap:square;stroke-width:0.8;"/>
     </g>
     <g id="line2d_12">
      <g>
       <use style="stroke:#000000;stroke-width:0.8;" x="302.491125" xlink:href="#m7f4fde7a05" y="315.638625"/>
      </g>
     </g>
     <g id="text_6">
      <!-- 12 -->
      <g transform="translate(296.128625 330.237062)scale(0.1 -0.1)">
       <use xlink:href="#DejaVuSans-49"/>
       <use x="63.623047" xlink:href="#DejaVuSans-50"/>
      </g>
     </g>
    </g>
    <g id="xtick_7">
     <g id="line2d_13">
      <path clip-path="url(#p58a7525887)" d="M 350.107125 315.638625 
L 350.107125 49.526625 
" style="fill:none;stroke:#b0b0b0;stroke-linecap:square;stroke-width:0.8;"/>
     </g>
     <g id="line2d_14">
      <g>
       <use style="stroke:#000000;stroke-width:0.8;" x="350.107125" xlink:href="#m7f4fde7a05" y="315.638625"/>
      </g>
     </g>
     <g id="text_7">
      <!-- 14 -->
      <g transform="translate(343.744625 330.237062)scale(0.1 -0.1)">
       <use xlink:href="#DejaVuSans-49"/>
       <use x="63.623047" xlink:href="#DejaVuSans-52"/>
      </g>
     </g>
    </g>
    <g id="xtick_8">
     <g id="line2d_15">
      <path clip-path="url(#p58a7525887)" d="M 397.723125 315.638625 
L 397.723125 49.526625 
" style="fill:none;stroke:#b0b0b0;stroke-linecap:square;stroke-width:0.8;"/>
     </g>
     <g id="line2d_16">
      <g>
       <use style="stroke:#000000;stroke-width:0.8;" x="397.723125" xlink:href="#m7f4fde7a05" y="315.638625"/>
      </g>
     </g>
     <g id="text_8">
      <!-- 16 -->
      <g transform="translate(391.360625 330.237062)scale(0.1 -0.1)">
       <use xlink:href="#DejaVuSans-49"/>
       <use x="63.623047" xlink:href="#DejaVuSans-54"/>
      </g>
     </g>
    </g>
    <g id="text_9">
     <!-- Time in Seconds -->
     <g transform="translate(178.186563 343.915187)scale(0.1 -0.1)">
      <defs>
       <path d="M -0.296875 72.90625 
L 61.375 72.90625 
L 61.375 64.59375 
L 35.5 64.59375 
L 35.5 0 
L 25.59375 0 
L 25.59375 64.59375 
L -0.296875 64.59375 
z
" id="DejaVuSans-84"/>
       <path d="M 9.421875 54.6875 
L 18.40625 54.6875 
L 18.40625 0 
L 9.421875 0 
z
M 9.421875 75.984375 
L 18.40625 75.984375 
L 18.40625 64.59375 
L 9.421875 64.59375 
z
" id="DejaVuSans-105"/>
       <path d="M 52 44.1875 
Q 55.375 50.25 60.0625 53.125 
Q 64.75 56 71.09375 56 
Q 79.640625 56 84.28125 50.015625 
Q 88.921875 44.046875 88.921875 33.015625 
L 88.921875 0 
L 79.890625 0 
L 79.890625 32.71875 
Q 79.890625 40.578125 77.09375 44.375 
Q 74.3125 48.1875 68.609375 48.1875 
Q 61.625 48.1875 57.5625 43.546875 
Q 53.515625 38.921875 53.515625 30.90625 
L 53.515625 0 
L 44.484375 0 
L 44.484375 32.71875 
Q 44.484375 40.625 41.703125 44.40625 
Q 38.921875 48.1875 33.109375 48.1875 
Q 26.21875 48.1875 22.15625 43.53125 
Q 18.109375 38.875 18.109375 30.90625 
L 18.109375 0 
L 9.078125 0 
L 9.078125 54.6875 
L 18.109375 54.6875 
L 18.109375 46.1875 
Q 21.1875 51.21875 25.484375 53.609375 
Q 29.78125 56 35.6875 56 
Q 41.65625 56 45.828125 52.96875 
Q 50 49.953125 52 44.1875 
z
" id="DejaVuSans-109"/>
       <path d="M 56.203125 29.59375 
L 56.203125 25.203125 
L 14.890625 25.203125 
Q 15.484375 15.921875 20.484375 11.0625 
Q 25.484375 6.203125 34.421875 6.203125 
Q 39.59375 6.203125 44.453125 7.46875 
Q 49.3125 8.734375 54.109375 11.28125 
L 54.109375 2.78125 
Q 49.265625 0.734375 44.1875 -0.34375 
Q 39.109375 -1.421875 33.890625 -1.421875 
Q 20.796875 -1.421875 13.15625 6.1875 
Q 5.515625 13.8125 5.515625 26.8125 
Q 5.515625 40.234375 12.765625 48.109375 
Q 20.015625 56 32.328125 56 
Q 43.359375 56 49.78125 48.890625 
Q 56.203125 41.796875 56.203125 29.59375 
z
M 47.21875 32.234375 
Q 47.125 39.59375 43.09375 43.984375 
Q 39.0625 48.390625 32.421875 48.390625 
Q 24.90625 48.390625 20.390625 44.140625 
Q 15.875 39.890625 15.1875 32.171875 
z
" id="DejaVuSans-101"/>
       <path id="DejaVuSans-32"/>
       <path d="M 54.890625 33.015625 
L 54.890625 0 
L 45.90625 0 
L 45.90625 32.71875 
Q 45.90625 40.484375 42.875 44.328125 
Q 39.84375 48.1875 33.796875 48.1875 
Q 26.515625 48.1875 22.3125 43.546875 
Q 18.109375 38.921875 18.109375 30.90625 
L 18.109375 0 
L 9.078125 0 
L 9.078125 54.6875 
L 18.109375 54.6875 
L 18.109375 46.1875 
Q 21.34375 51.125 25.703125 53.5625 
Q 30.078125 56 35.796875 56 
Q 45.21875 56 50.046875 50.171875 
Q 54.890625 44.34375 54.890625 33.015625 
z
" id="DejaVuSans-110"/>
       <path d="M 53.515625 70.515625 
L 53.515625 60.890625 
Q 47.90625 63.578125 42.921875 64.890625 
Q 37.9375 66.21875 33.296875 66.21875 
Q 25.25 66.21875 20.875 63.09375 
Q 16.5 59.96875 16.5 54.203125 
Q 16.5 49.359375 19.40625 46.890625 
Q 22.3125 44.4375 30.421875 42.921875 
L 36.375 41.703125 
Q 47.40625 39.59375 52.65625 34.296875 
Q 57.90625 29 57.90625 20.125 
Q 57.90625 9.515625 50.796875 4.046875 
Q 43.703125 -1.421875 29.984375 -1.421875 
Q 24.8125 -1.421875 18.96875 -0.25 
Q 13.140625 0.921875 6.890625 3.21875 
L 6.890625 13.375 
Q 12.890625 10.015625 18.65625 8.296875 
Q 24.421875 6.59375 29.984375 6.59375 
Q 38.421875 6.59375 43.015625 9.90625 
Q 47.609375 13.234375 47.609375 19.390625 
Q 47.609375 24.75 44.3125 27.78125 
Q 41.015625 30.8125 33.5 32.328125 
L 27.484375 33.5 
Q 16.453125 35.6875 11.515625 40.375 
Q 6.59375 45.0625 6.59375 53.421875 
Q 6.59375 63.09375 13.40625 68.65625 
Q 20.21875 74.21875 32.171875 74.21875 
Q 37.3125 74.21875 42.625 73.28125 
Q 47.953125 72.359375 53.515625 70.515625 
z
" id="DejaVuSans-83"/>
       <path d="M 48.78125 52.59375 
L 48.78125 44.1875 
Q 44.96875 46.296875 41.140625 47.34375 
Q 37.3125 48.390625 33.40625 48.390625 
Q 24.65625 48.390625 19.8125 42.84375 
Q 14.984375 37.3125 14.984375 27.296875 
Q 14.984375 17.28125 19.8125 11.734375 
Q 24.65625 6.203125 33.40625 6.203125 
Q 37.3125 6.203125 41.140625 7.25 
Q 44.96875 8.296875 48.78125 10.40625 
L 48.78125 2.09375 
Q 45.015625 0.34375 40.984375 -0.53125 
Q 36.96875 -1.421875 32.421875 -1.421875 
Q 20.0625 -1.421875 12.78125 6.34375 
Q 5.515625 14.109375 5.515625 27.296875 
Q 5.515625 40.671875 12.859375 48.328125 
Q 20.21875 56 33.015625 56 
Q 37.15625 56 41.109375 55.140625 
Q 45.0625 54.296875 48.78125 52.59375 
z
" id="DejaVuSans-99"/>
       <path d="M 30.609375 48.390625 
Q 23.390625 48.390625 19.1875 42.75 
Q 14.984375 37.109375 14.984375 27.296875 
Q 14.984375 17.484375 19.15625 11.84375 
Q 23.34375 6.203125 30.609375 6.203125 
Q 37.796875 6.203125 41.984375 11.859375 
Q 46.1875 17.53125 46.1875 27.296875 
Q 46.1875 37.015625 41.984375 42.703125 
Q 37.796875 48.390625 30.609375 48.390625 
z
M 30.609375 56 
Q 42.328125 56 49.015625 48.375 
Q 55.71875 40.765625 55.71875 27.296875 
Q 55.71875 13.875 49.015625 6.21875 
Q 42.328125 -1.421875 30.609375 -1.421875 
Q 18.84375 -1.421875 12.171875 6.21875 
Q 5.515625 13.875 5.515625 27.296875 
Q 5.515625 40.765625 12.171875 48.375 
Q 18.84375 56 30.609375 56 
z
" id="DejaVuSans-111"/>
       <path d="M 45.40625 46.390625 
L 45.40625 75.984375 
L 54.390625 75.984375 
L 54.390625 0 
L 45.40625 0 
L 45.40625 8.203125 
Q 42.578125 3.328125 38.25 0.953125 
Q 33.9375 -1.421875 27.875 -1.421875 
Q 17.96875 -1.421875 11.734375 6.484375 
Q 5.515625 14.40625 5.515625 27.296875 
Q 5.515625 40.1875 11.734375 48.09375 
Q 17.96875 56 27.875 56 
Q 33.9375 56 38.25 53.625 
Q 42.578125 51.265625 45.40625 46.390625 
z
M 14.796875 27.296875 
Q 14.796875 17.390625 18.875 11.75 
Q 22.953125 6.109375 30.078125 6.109375 
Q 37.203125 6.109375 41.296875 11.75 
Q 45.40625 17.390625 45.40625 27.296875 
Q 45.40625 37.203125 41.296875 42.84375 
Q 37.203125 48.484375 30.078125 48.484375 
Q 22.953125 48.484375 18.875 42.84375 
Q 14.796875 37.203125 14.796875 27.296875 
z
" id="DejaVuSans-100"/>
       <path d="M 44.28125 53.078125 
L 44.28125 44.578125 
Q 40.484375 46.53125 36.375 47.5 
Q 32.28125 48.484375 27.875 48.484375 
Q 21.1875 48.484375 17.84375 46.4375 
Q 14.5 44.390625 14.5 40.28125 
Q 14.5 37.15625 16.890625 35.375 
Q 19.28125 33.59375 26.515625 31.984375 
L 29.59375 31.296875 
Q 39.15625 29.25 43.1875 25.515625 
Q 47.21875 21.78125 47.21875 15.09375 
Q 47.21875 7.46875 41.1875 3.015625 
Q 35.15625 -1.421875 24.609375 -1.421875 
Q 20.21875 -1.421875 15.453125 -0.5625 
Q 10.6875 0.296875 5.421875 2 
L 5.421875 11.28125 
Q 10.40625 8.6875 15.234375 7.390625 
Q 20.0625 6.109375 24.8125 6.109375 
Q 31.15625 6.109375 34.5625 8.28125 
Q 37.984375 10.453125 37.984375 14.40625 
Q 37.984375 18.0625 35.515625 20.015625 
Q 33.0625 21.96875 24.703125 23.78125 
L 21.578125 24.515625 
Q 13.234375 26.265625 9.515625 29.90625 
Q 5.8125 33.546875 5.8125 39.890625 
Q 5.8125 47.609375 11.28125 51.796875 
Q 16.75 56 26.8125 56 
Q 31.78125 56 36.171875 55.265625 
Q 40.578125 54.546875 44.28125 53.078125 
z
" id="DejaVuSans-115"/>
      </defs>
      <use xlink:href="#DejaVuSans-84"/>
      <use x="57.958984" xlink:href="#DejaVuSans-105"/>
      <use x="85.742188" xlink:href="#DejaVuSans-109"/>
      <use x="183.154297" xlink:href="#DejaVuSans-101"/>
      <use x="244.677734" xlink:href="#DejaVuSans-32"/>
      <use x="276.464844" xlink:href="#DejaVuSans-105"/>
      <use x="304.248047" xlink:href="#DejaVuSans-110"/>
      <use x="367.626953" xlink:href="#DejaVuSans-32"/>
      <use x="399.414062" xlink:href="#DejaVuSans-83"/>
      <use x="462.890625" xlink:href="#DejaVuSans-101"/>
      <use x="524.414062" xlink:href="#DejaVuSans-99"/>
      <use x="579.394531" xlink:href="#DejaVuSans-111"/>
      <use x="640.576172" xlink:href="#DejaVuSans-110"/>
      <use x="703.955078" xlink:href="#DejaVuSans-100"/>
      <use x="767.431641" xlink:href="#DejaVuSans-115"/>
     </g>
    </g>
   </g>
   <g id="matplotlib.axis_2">
    <g id="ytick_1">
     <g id="line2d_17">
      <path clip-path="url(#p58a7525887)" d="M 40.603125 303.542627 
L 397.723125 303.542627 
" style="fill:none;stroke:#b0b0b0;stroke-linecap:square;stroke-width:0.8;"/>
     </g>
     <g id="line2d_18">
      <defs>
       <path d="M 0 0 
L -3.5 0 
" id="m95998ad7de" style="stroke:#000000;stroke-width:0.8;"/>
      </defs>
      <g>
       <use style="stroke:#000000;stroke-width:0.8;" x="40.603125" xlink:href="#m95998ad7de" y="303.542627"/>
      </g>
     </g>
     <g id="text_10">
      <!-- 0 -->
      <g transform="translate(27.240625 307.341846)scale(0.1 -0.1)">
       <use xlink:href="#DejaVuSans-48"/>
      </g>
     </g>
    </g>
    <g id="ytick_2">
     <g id="line2d_19">
      <path clip-path="url(#p58a7525887)" d="M 40.603125 249.025443 
L 397.723125 249.025443 
" style="fill:none;stroke:#b0b0b0;stroke-linecap:square;stroke-width:0.8;"/>
     </g>
     <g id="line2d_20">
      <g>
       <use style="stroke:#000000;stroke-width:0.8;" x="40.603125" xlink:href="#m95998ad7de" y="249.025443"/>
      </g>
     </g>
     <g id="text_11">
      <!-- 20 -->
      <g transform="translate(20.878125 252.824662)scale(0.1 -0.1)">
       <use xlink:href="#DejaVuSans-50"/>
       <use x="63.623047" xlink:href="#DejaVuSans-48"/>
      </g>
     </g>
    </g>
    <g id="ytick_3">
     <g id="line2d_21">
      <path clip-path="url(#p58a7525887)" d="M 40.603125 194.50826 
L 397.723125 194.50826 
" style="fill:none;stroke:#b0b0b0;stroke-linecap:square;stroke-width:0.8;"/>
     </g>
     <g id="line2d_22">
      <g>
       <use style="stroke:#000000;stroke-width:0.8;" x="40.603125" xlink:href="#m95998ad7de" y="194.50826"/>
      </g>
     </g>
     <g id="text_12">
      <!-- 40 -->
      <g transform="translate(20.878125 198.307479)scale(0.1 -0.1)">
       <use xlink:href="#DejaVuSans-52"/>
       <use x="63.623047" xlink:href="#DejaVuSans-48"/>
      </g>
     </g>
    </g>
    <g id="ytick_4">
     <g id="line2d_23">
      <path clip-path="url(#p58a7525887)" d="M 40.603125 139.991076 
L 397.723125 139.991076 
" style="fill:none;stroke:#b0b0b0;stroke-linecap:square;stroke-width:0.8;"/>
     </g>
     <g id="line2d_24">
      <g>
       <use style="stroke:#000000;stroke-width:0.8;" x="40.603125" xlink:href="#m95998ad7de" y="139.991076"/>
      </g>
     </g>
     <g id="text_13">
      <!-- 60 -->
      <g transform="translate(20.878125 143.790295)scale(0.1 -0.1)">
       <use xlink:href="#DejaVuSans-54"/>
       <use x="63.623047" xlink:href="#DejaVuSans-48"/>
      </g>
     </g>
    </g>
    <g id="ytick_5">
     <g id="line2d_25">
      <path clip-path="url(#p58a7525887)" d="M 40.603125 85.473893 
L 397.723125 85.473893 
" style="fill:none;stroke:#b0b0b0;stroke-linecap:square;stroke-width:0.8;"/>
     </g>
     <g id="line2d_26">
      <g>
       <use style="stroke:#000000;stroke-width:0.8;" x="40.603125" xlink:href="#m95998ad7de" y="85.473893"/>
      </g>
     </g>
     <g id="text_14">
      <!-- 80 -->
      <g transform="translate(20.878125 89.273112)scale(0.1 -0.1)">
       <use xlink:href="#DejaVuSans-56"/>
       <use x="63.623047" xlink:href="#DejaVuSans-48"/>
      </g>
     </g>
    </g>
    <g id="text_15">
     <!-- Latency in Milliseconds -->
     <g transform="translate(14.798438 240.390437)rotate(-90)scale(0.1 -0.1)">
      <defs>
       <path d="M 9.8125 72.90625 
L 19.671875 72.90625 
L 19.671875 8.296875 
L 55.171875 8.296875 
L 55.171875 0 
L 9.8125 0 
z
" id="DejaVuSans-76"/>
       <path d="M 34.28125 27.484375 
Q 23.390625 27.484375 19.1875 25 
Q 14.984375 22.515625 14.984375 16.5 
Q 14.984375 11.71875 18.140625 8.90625 
Q 21.296875 6.109375 26.703125 6.109375 
Q 34.1875 6.109375 38.703125 11.40625 
Q 43.21875 16.703125 43.21875 25.484375 
L 43.21875 27.484375 
z
M 52.203125 31.203125 
L 52.203125 0 
L 43.21875 0 
L 43.21875 8.296875 
Q 40.140625 3.328125 35.546875 0.953125 
Q 30.953125 -1.421875 24.3125 -1.421875 
Q 15.921875 -1.421875 10.953125 3.296875 
Q 6 8.015625 6 15.921875 
Q 6 25.140625 12.171875 29.828125 
Q 18.359375 34.515625 30.609375 34.515625 
L 43.21875 34.515625 
L 43.21875 35.40625 
Q 43.21875 41.609375 39.140625 45 
Q 35.0625 48.390625 27.6875 48.390625 
Q 23 48.390625 18.546875 47.265625 
Q 14.109375 46.140625 10.015625 43.890625 
L 10.015625 52.203125 
Q 14.9375 54.109375 19.578125 55.046875 
Q 24.21875 56 28.609375 56 
Q 40.484375 56 46.34375 49.84375 
Q 52.203125 43.703125 52.203125 31.203125 
z
" id="DejaVuSans-97"/>
       <path d="M 18.3125 70.21875 
L 18.3125 54.6875 
L 36.8125 54.6875 
L 36.8125 47.703125 
L 18.3125 47.703125 
L 18.3125 18.015625 
Q 18.3125 11.328125 20.140625 9.421875 
Q 21.96875 7.515625 27.59375 7.515625 
L 36.8125 7.515625 
L 36.8125 0 
L 27.59375 0 
Q 17.1875 0 13.234375 3.875 
Q 9.28125 7.765625 9.28125 18.015625 
L 9.28125 47.703125 
L 2.6875 47.703125 
L 2.6875 54.6875 
L 9.28125 54.6875 
L 9.28125 70.21875 
z
" id="DejaVuSans-116"/>
       <path d="M 32.171875 -5.078125 
Q 28.375 -14.84375 24.75 -17.8125 
Q 21.140625 -20.796875 15.09375 -20.796875 
L 7.90625 -20.796875 
L 7.90625 -13.28125 
L 13.1875 -13.28125 
Q 16.890625 -13.28125 18.9375 -11.515625 
Q 21 -9.765625 23.484375 -3.21875 
L 25.09375 0.875 
L 2.984375 54.6875 
L 12.5 54.6875 
L 29.59375 11.921875 
L 46.6875 54.6875 
L 56.203125 54.6875 
z
" id="DejaVuSans-121"/>
       <path d="M 9.8125 72.90625 
L 24.515625 72.90625 
L 43.109375 23.296875 
L 61.8125 72.90625 
L 76.515625 72.90625 
L 76.515625 0 
L 66.890625 0 
L 66.890625 64.015625 
L 48.09375 14.015625 
L 38.1875 14.015625 
L 19.390625 64.015625 
L 19.390625 0 
L 9.8125 0 
z
" id="DejaVuSans-77"/>
       <path d="M 9.421875 75.984375 
L 18.40625 75.984375 
L 18.40625 0 
L 9.421875 0 
z
" id="DejaVuSans-108"/>
      </defs>
      <use xlink:href="#DejaVuSans-76"/>
      <use x="55.712891" xlink:href="#DejaVuSans-97"/>
      <use x="116.992188" xlink:href="#DejaVuSans-116"/>
      <use x="156.201172" xlink:href="#DejaVuSans-101"/>
      <use x="217.724609" xlink:href="#DejaVuSans-110"/>
      <use x="281.103516" xlink:href="#DejaVuSans-99"/>
      <use x="336.083984" xlink:href="#DejaVuSans-121"/>
      <use x="395.263672" xlink:href="#DejaVuSans-32"/>
      <use x="427.050781" xlink:href="#DejaVuSans-105"/>
      <use x="454.833984" xlink:href="#DejaVuSans-110"/>
      <use x="518.212891" xlink:href="#DejaVuSans-32"/>
      <use x="550" xlink:href="#DejaVuSans-77"/>
      <use x="636.279297" xlink:href="#DejaVuSans-105"/>
      <use x="664.0625" xlink:href="#DejaVuSans-108"/>
      <use x="691.845703" xlink:href="#DejaVuSans-108"/>
      <use x="719.628906" xlink:href="#DejaVuSans-105"/>
      <use x="747.412109" xlink:href="#DejaVuSans-115"/>
      <use x="799.511719" xlink:href="#DejaVuSans-101"/>
      <use x="861.035156" xlink:href="#DejaVuSans-99"/>
      <use x="916.015625" xlink:href="#DejaVuSans-111"/>
      <use x="977.197266" xlink:href="#DejaVuSans-110"/>
      <use x="1040.576172" xlink:href="#DejaVuSans-100"/>
      <use x="1104.052734" xlink:href="#DejaVuSans-115"/>
     </g>
    </g>
   </g>
   <g id="line2d_27">
    <path clip-path="url(#p58a7525887)" d="M 16.795125 284.270803 
L 40.603125 254.667972 
L 64.411125 266.934338 
L 88.219125 269.41487 
L 112.027125 224.574487 
L 135.835125 271.268454 
L 159.643125 242.31983 
L 183.451125 210.400019 
L 207.259125 259.683553 
L 231.067125 266.498201 
L 254.875125 260.337759 
L 278.683125 278.028585 
L 302.491125 296.041062 
L 326.299125 250.361114 
L 350.107125 266.498201 
" style="fill:none;stroke:#ff0000;stroke-linecap:square;stroke-opacity:0.2;stroke-width:1.5;"/>
   </g>
   <g id="line2d_28">
    <path clip-path="url(#p58a7525887)" d="M 16.795125 302.872611 
L 40.603125 301.189665 
L 64.411125 301.625803 
L 88.219125 300.831215 
L 112.027125 299.767312 
L 135.835125 301.835421 
L 159.643125 297.935535 
L 183.451125 289.618938 
L 207.259125 300.604151 
L 231.067125 301.862952 
L 254.875125 301.771909 
L 278.683125 302.755944 
L 302.491125 303.35198 
L 326.299125 301.486511 
L 350.107125 301.614899 
" style="fill:none;stroke:#800080;stroke-linecap:square;stroke-opacity:0.2;stroke-width:1.5;"/>
   </g>
   <g id="line2d_29">
    <path clip-path="url(#p58a7525887)" d="M 16.795125 233.706115 
L 40.603125 146.669431 
L 64.411125 239.757522 
L 88.219125 257.366572 
L 112.027125 293.516917 
L 135.835125 255.512988 
L 159.643125 234.224028 
L 183.451125 249.188995 
L 207.259125 216.751271 
L 231.067125 253.441335 
L 254.875125 201.486459 
L 278.683125 184.504357 
L 302.491125 219.040992 
L 326.299125 255.894608 
L 350.107125 260.855672 
" style="fill:none;stroke:#ff0000;stroke-linecap:square;stroke-opacity:0.2;stroke-width:1.5;"/>
   </g>
   <g id="line2d_30">
    <path clip-path="url(#p58a7525887)" d="M 16.795125 300.012639 
L 40.603125 284.189027 
L 64.411125 298.660613 
L 88.219125 301.592002 
L 112.027125 303.286369 
L 135.835125 300.976776 
L 159.643125 298.968635 
L 183.451125 300.083512 
L 207.259125 295.446825 
L 231.067125 300.544182 
L 254.875125 296.114661 
L 278.683125 291.366214 
L 302.491125 295.921125 
L 326.299125 301.895118 
L 350.107125 301.272531 
" style="fill:none;stroke:#800080;stroke-linecap:square;stroke-opacity:0.2;stroke-width:1.5;"/>
   </g>
   <g id="line2d_31">
    <path clip-path="url(#p58a7525887)" d="M 16.795125 284.104525 
L 40.603125 289.738876 
L 64.411125 278.513788 
L 88.219125 153.293269 
L 112.027125 279.56597 
L 135.835125 266.062063 
L 159.643125 261.346327 
L 183.451125 290.008736 
L 207.259125 298.750566 
L 231.067125 268.597112 
L 254.875125 259.138381 
L 278.683125 268.924215 
L 302.491125 281.125161 
L 326.299125 282.068308 
L 350.107125 243.846311 
" style="fill:none;stroke:#ff0000;stroke-linecap:square;stroke-opacity:0.2;stroke-width:1.5;"/>
   </g>
   <g id="line2d_32">
    <path clip-path="url(#p58a7525887)" d="M 16.795125 302.843171 
L 40.603125 302.978919 
L 64.411125 302.572766 
L 88.219125 280.997046 
L 112.027125 302.219495 
L 135.835125 301.828334 
L 159.643125 301.795624 
L 183.451125 303.192627 
L 207.259125 303.425224 
L 231.067125 302.277556 
L 254.875125 301.973077 
L 278.683125 301.803801 
L 302.491125 302.820274 
L 326.299125 302.801466 
L 350.107125 301.321597 
" style="fill:none;stroke:#800080;stroke-linecap:square;stroke-opacity:0.2;stroke-width:1.5;"/>
   </g>
   <g id="line2d_33">
    <path clip-path="url(#p58a7525887)" d="M 40.603125 61.622625 
L 64.411125 283.799229 
L 88.219125 289.820652 
L 112.027125 232.343185 
L 135.835125 259.138381 
L 159.643125 251.206131 
L 183.451125 225.255951 
L 207.259125 223.320591 
L 231.067125 254.449903 
L 254.875125 239.348643 
L 278.683125 269.523904 
L 302.491125 273.912538 
L 326.299125 272.440574 
L 350.107125 286.473297 
" style="fill:none;stroke:#ff0000;stroke-linecap:square;stroke-opacity:0.2;stroke-width:1.5;"/>
   </g>
   <g id="line2d_34">
    <path clip-path="url(#p58a7525887)" d="M 40.603125 272.71316 
L 64.411125 302.840718 
L 88.219125 302.97374 
L 112.027125 299.293012 
L 135.835125 300.713185 
L 159.643125 300.579618 
L 183.451125 299.502904 
L 207.259125 298.960458 
L 231.067125 300.864743 
L 254.875125 299.963574 
L 278.683125 302.278101 
L 302.491125 302.461279 
L 326.299125 300.872103 
L 350.107125 302.737953 
" style="fill:none;stroke:#800080;stroke-linecap:square;stroke-opacity:0.2;stroke-width:1.5;"/>
   </g>
   <g id="line2d_35">
    <path clip-path="url(#p58a7525887)" d="M 16.795125 263.22717 
L 40.603125 270.232628 
L 64.411125 268.569854 
L 88.219125 240.711573 
L 112.027125 278.129442 
L 135.835125 229.835395 
L 159.643125 256.112677 
L 183.451125 275.548053 
L 207.259125 264.780909 
L 231.067125 276.957322 
L 254.875125 219.504388 
L 278.683125 201.132098 
L 302.491125 280.470955 
L 326.299125 224.792555 
L 350.107125 112.378123 
" style="fill:none;stroke:#ff0000;stroke-linecap:square;stroke-opacity:0.2;stroke-width:1.5;"/>
   </g>
   <g id="line2d_36">
    <path clip-path="url(#p58a7525887)" d="M 16.795125 302.015873 
L 40.603125 302.438109 
L 64.411125 302.288187 
L 88.219125 300.07806 
L 112.027125 302.125725 
L 135.835125 298.270815 
L 159.643125 301.06264 
L 183.451125 302.159253 
L 207.259125 301.761005 
L 231.067125 302.491263 
L 254.875125 295.626732 
L 278.683125 295.245112 
L 302.491125 302.807463 
L 326.299125 298.374398 
L 350.107125 291.325326 
" style="fill:none;stroke:#800080;stroke-linecap:square;stroke-opacity:0.2;stroke-width:1.5;"/>
   </g>
   <g id="line2d_37">
    <path clip-path="url(#p58a7525887)" d="M 16.795125 244.473259 
L 40.603125 268.733405 
L 64.411125 145.742639 
L 88.219125 254.804265 
L 112.027125 254.286352 
L 135.835125 281.588557 
L 159.643125 292.873614 
L 183.451125 289.049234 
L 207.259125 296.057418 
L 231.067125 236.595526 
L 254.875125 284.150865 
L 278.683125 166.459169 
L 302.491125 277.10997 
L 326.299125 287.045727 
L 350.107125 205.54799 
" style="fill:none;stroke:#ff0000;stroke-linecap:square;stroke-opacity:0.2;stroke-width:1.5;"/>
   </g>
   <g id="line2d_38">
    <path clip-path="url(#p58a7525887)" d="M 16.795125 300.124399 
L 40.603125 300.824673 
L 64.411125 283.303123 
L 88.219125 298.826891 
L 112.027125 300.973777 
L 135.835125 302.603023 
L 159.643125 303.267588 
L 183.451125 303.167276 
L 207.259125 303.356314 
L 231.067125 300.369727 
L 254.875125 302.821092 
L 278.683125 283.071424 
L 302.491125 302.773935 
L 326.299125 302.921131 
L 350.107125 297.273151 
" style="fill:none;stroke:#800080;stroke-linecap:square;stroke-opacity:0.2;stroke-width:1.5;"/>
   </g>
   <g id="line2d_39">
    <path clip-path="url(#p58a7525887)" d="M 16.795125 251.478717 
L 40.603125 258.865795 
L 64.411125 287.081163 
L 88.219125 262.109567 
L 112.027125 118.947443 
L 135.835125 212.716999 
L 159.643125 248.562047 
L 183.451125 279.574147 
L 207.259125 225.583054 
L 231.067125 231.498169 
L 254.875125 183.059651 
L 278.683125 128.978605 
L 302.491125 262.436671 
L 326.299125 293.11349 
L 350.107125 272.604125 
" style="fill:none;stroke:#ff0000;stroke-linecap:square;stroke-opacity:0.2;stroke-width:1.5;"/>
   </g>
   <g id="line2d_40">
    <path clip-path="url(#p58a7525887)" d="M 16.795125 301.716029 
L 40.603125 298.974087 
L 64.411125 302.906957 
L 88.219125 301.551932 
L 112.027125 286.113483 
L 135.835125 292.328442 
L 159.643125 300.418792 
L 183.451125 302.103373 
L 207.259125 299.620116 
L 231.067125 298.077279 
L 254.875125 287.874388 
L 278.683125 283.033262 
L 302.491125 300.954151 
L 326.299125 303.264589 
L 350.107125 302.47518 
" style="fill:none;stroke:#800080;stroke-linecap:square;stroke-opacity:0.2;stroke-width:1.5;"/>
   </g>
   <g id="line2d_41">
    <path clip-path="url(#p58a7525887)" d="M 16.795125 189.765265 
L 40.603125 270.995868 
L 64.411125 262.109567 
L 88.219125 260.528569 
L 112.027125 228.690534 
L 135.835125 254.150059 
L 159.643125 289.796119 
L 183.451125 257.639158 
L 207.259125 286.827658 
L 231.067125 256.903176 
L 254.875125 287.321039 
L 278.683125 239.893815 
L 302.491125 277.518849 
L 326.299125 236.977146 
L 350.107125 282.564415 
" style="fill:none;stroke:#ff0000;stroke-linecap:square;stroke-opacity:0.2;stroke-width:1.5;"/>
   </g>
   <g id="line2d_42">
    <path clip-path="url(#p58a7525887)" d="M 16.795125 294.222914 
L 40.603125 302.032501 
L 64.411125 301.661239 
L 88.219125 301.609993 
L 112.027125 297.613883 
L 135.835125 301.583552 
L 159.643125 303.178725 
L 183.451125 300.595973 
L 207.259125 302.905594 
L 231.067125 301.233824 
L 254.875125 302.92631 
L 278.683125 299.914508 
L 302.491125 302.544962 
L 326.299125 298.578837 
L 350.107125 303.041887 
" style="fill:none;stroke:#800080;stroke-linecap:square;stroke-opacity:0.2;stroke-width:1.5;"/>
   </g>
   <g id="line2d_43">
    <path clip-path="url(#p58a7525887)" d="M 16.795125 264.699134 
L 40.603125 135.793253 
L 64.411125 241.256745 
L 88.219125 251.342424 
L 112.027125 265.462374 
L 135.835125 229.208447 
L 159.643125 257.502865 
L 183.451125 279.178898 
L 207.259125 284.24627 
L 231.067125 290.063253 
L 254.875125 260.11969 
L 278.683125 258.157072 
L 302.491125 284.13451 
L 326.299125 269.115026 
L 350.107125 302.130904 
" style="fill:none;stroke:#ff0000;stroke-linecap:square;stroke-opacity:0.2;stroke-width:1.5;"/>
   </g>
   <g id="line2d_44">
    <path clip-path="url(#p58a7525887)" d="M 16.795125 302.38768 
L 40.603125 289.937864 
L 64.411125 299.322997 
L 88.219125 301.060732 
L 112.027125 301.69613 
L 135.835125 297.654771 
L 159.643125 301.789082 
L 183.451125 302.765757 
L 207.259125 302.842899 
L 231.067125 302.988187 
L 254.875125 301.568832 
L 278.683125 300.642313 
L 302.491125 302.858436 
L 326.299125 302.432384 
L 350.107125 303.542625 
" style="fill:none;stroke:#800080;stroke-linecap:square;stroke-opacity:0.2;stroke-width:1.5;"/>
   </g>
   <g id="line2d_45">
    <path clip-path="url(#p58a7525887)" d="M 16.795125 263.199911 
L 40.603125 272.495091 
L 64.411125 235.34163 
L 88.219125 113.550242 
L 112.027125 245.727154 
L 135.835125 246.790239 
L 159.643125 264.590099 
L 183.451125 223.53866 
L 207.259125 255.567505 
L 231.067125 243.192105 
L 254.875125 224.656262 
L 278.683125 171.202164 
L 302.491125 281.035208 
L 326.299125 260.201466 
L 350.107125 302.005242 
" style="fill:none;stroke:#ff0000;stroke-linecap:square;stroke-opacity:0.2;stroke-width:1.5;"/>
   </g>
   <g id="line2d_46">
    <path clip-path="url(#p58a7525887)" d="M 16.795125 301.463069 
L 40.603125 302.013147 
L 64.411125 300.794961 
L 88.219125 283.649307 
L 112.027125 300.473309 
L 135.835125 300.148932 
L 159.643125 300.890911 
L 183.451125 295.66762 
L 207.259125 301.871675 
L 231.067125 298.64971 
L 254.875125 297.777435 
L 278.683125 289.329997 
L 302.491125 302.812097 
L 326.299125 301.67296 
L 350.107125 303.542624 
" style="fill:none;stroke:#800080;stroke-linecap:square;stroke-opacity:0.2;stroke-width:1.5;"/>
   </g>
   <g id="line2d_47">
    <path clip-path="url(#p58a7525887)" d="M 40.603125 222.981494 
L 64.411125 250.910648 
L 88.219125 235.2942 
L 112.027125 242.124386 
L 135.835125 250.627158 
L 159.643125 259.853374 
L 183.451125 257.938185 
L 207.259125 261.15688 
L 231.067125 257.81961 
L 254.875125 241.912314 
L 278.683125 216.680398 
L 302.491125 273.282592 
L 326.299125 263.201001 
L 350.107125 253.490428 
" style="fill:none;stroke:#ff0000;stroke-linecap:square;stroke-width:1.5;"/>
   </g>
   <g id="line2d_48">
    <path clip-path="url(#p58a7525887)" d="M 0 0 
" style="fill:none;stroke:#ff0000;stroke-dasharray:5.55,2.4;stroke-dashoffset:0;stroke-width:1.5;"/>
   </g>
   <g id="line2d_49">
    <path clip-path="url(#p58a7525887)" d="M 40.603125 295.729115 
L 64.411125 299.597736 
L 88.219125 297.317092 
L 112.027125 299.35625 
L 135.835125 299.794325 
L 159.643125 300.988715 
L 183.451125 299.885723 
L 207.259125 301.079426 
L 231.067125 300.935942 
L 254.875125 298.841801 
L 278.683125 294.944068 
L 302.491125 301.93057 
L 326.299125 301.42995 
L 350.107125 300.814777 
" style="fill:none;stroke:#800080;stroke-linecap:square;stroke-width:1.5;"/>
   </g>
   <g id="line2d_50">
    <path clip-path="url(#p58a7525887)" d="M 0 0 
" style="fill:none;stroke:#800080;stroke-dasharray:5.55,2.4;stroke-dashoffset:0;stroke-width:1.5;"/>
   </g>
   <g id="patch_3">
    <path d="M 40.603125 315.638625 
L 40.603125 49.526625 
" style="fill:none;stroke:#000000;stroke-linecap:square;stroke-linejoin:miter;stroke-width:0.8;"/>
   </g>
   <g id="patch_4">
    <path d="M 397.723125 315.638625 
L 397.723125 49.526625 
" style="fill:none;stroke:#000000;stroke-linecap:square;stroke-linejoin:miter;stroke-width:0.8;"/>
   </g>
   <g id="patch_5">
    <path d="M 40.603125 315.638625 
L 397.723125 315.638625 
" style="fill:none;stroke:#000000;stroke-linecap:square;stroke-linejoin:miter;stroke-width:0.8;"/>
   </g>
   <g id="patch_6">
    <path d="M 40.603125 49.526625 
L 397.723125 49.526625 
" style="fill:none;stroke:#000000;stroke-linecap:square;stroke-linejoin:miter;stroke-width:0.8;"/>
   </g>
   <g id="text_16">
    <!-- Array1k@30Hz 1 Pub to 1 Sub, multi-processes, single machine -->
    <g transform="translate(28.22625 16.318125)scale(0.12 -0.12)">
     <defs>
      <path d="M 34.1875 63.1875 
L 20.796875 26.90625 
L 47.609375 26.90625 
z
M 28.609375 72.90625 
L 39.796875 72.90625 
L 67.578125 0 
L 57.328125 0 
L 50.6875 18.703125 
L 17.828125 18.703125 
L 11.1875 0 
L 0.78125 0 
z
" id="DejaVuSans-65"/>
      <path d="M 41.109375 46.296875 
Q 39.59375 47.171875 37.8125 47.578125 
Q 36.03125 48 33.890625 48 
Q 26.265625 48 22.1875 43.046875 
Q 18.109375 38.09375 18.109375 28.8125 
L 18.109375 0 
L 9.078125 0 
L 9.078125 54.6875 
L 18.109375 54.6875 
L 18.109375 46.1875 
Q 20.953125 51.171875 25.484375 53.578125 
Q 30.03125 56 36.53125 56 
Q 37.453125 56 38.578125 55.875 
Q 39.703125 55.765625 41.0625 55.515625 
z
" id="DejaVuSans-114"/>
      <path d="M 9.078125 75.984375 
L 18.109375 75.984375 
L 18.109375 31.109375 
L 44.921875 54.6875 
L 56.390625 54.6875 
L 27.390625 29.109375 
L 57.625 0 
L 45.90625 0 
L 18.109375 26.703125 
L 18.109375 0 
L 9.078125 0 
z
" id="DejaVuSans-107"/>
      <path d="M 37.203125 26.21875 
Q 37.203125 19.234375 40.671875 15.25 
Q 44.140625 11.28125 50.203125 11.28125 
Q 56.203125 11.28125 59.640625 15.28125 
Q 63.09375 19.28125 63.09375 26.21875 
Q 63.09375 33.0625 59.578125 37.078125 
Q 56.0625 41.109375 50.09375 41.109375 
Q 44.1875 41.109375 40.6875 37.109375 
Q 37.203125 33.109375 37.203125 26.21875 
z
M 63.8125 11.625 
Q 60.890625 7.859375 57.109375 6.078125 
Q 53.328125 4.296875 48.296875 4.296875 
Q 39.890625 4.296875 34.640625 10.375 
Q 29.390625 16.453125 29.390625 26.21875 
Q 29.390625 35.984375 34.65625 42.078125 
Q 39.9375 48.1875 48.296875 48.1875 
Q 53.328125 48.1875 57.125 46.359375 
Q 60.9375 44.53125 63.8125 40.828125 
L 63.8125 47.21875 
L 70.796875 47.21875 
L 70.796875 11.28125 
Q 77.9375 12.359375 81.953125 17.796875 
Q 85.984375 23.25 85.984375 31.890625 
Q 85.984375 37.109375 84.4375 41.703125 
Q 82.90625 46.296875 79.78125 50.203125 
Q 74.703125 56.59375 67.40625 59.984375 
Q 60.109375 63.375 51.515625 63.375 
Q 45.515625 63.375 39.984375 61.78125 
Q 34.46875 60.203125 29.78125 57.078125 
Q 22.125 52.09375 17.796875 44.015625 
Q 13.484375 35.9375 13.484375 26.515625 
Q 13.484375 18.75 16.28125 11.953125 
Q 19.09375 5.171875 24.421875 0 
Q 29.546875 -5.078125 36.28125 -7.734375 
Q 43.015625 -10.40625 50.6875 -10.40625 
Q 56.984375 -10.40625 63.0625 -8.28125 
Q 69.140625 -6.15625 74.21875 -2.203125 
L 78.609375 -7.625 
Q 72.515625 -12.359375 65.3125 -14.875 
Q 58.109375 -17.390625 50.6875 -17.390625 
Q 41.65625 -17.390625 33.640625 -14.1875 
Q 25.640625 -10.984375 19.390625 -4.890625 
Q 13.140625 1.21875 9.859375 9.25 
Q 6.59375 17.28125 6.59375 26.515625 
Q 6.59375 35.40625 9.90625 43.453125 
Q 13.234375 51.515625 19.390625 57.625 
Q 25.6875 63.8125 33.9375 67.109375 
Q 42.1875 70.40625 51.421875 70.40625 
Q 61.765625 70.40625 70.625 66.15625 
Q 79.5 61.921875 85.5 54.109375 
Q 89.15625 49.3125 91.078125 43.703125 
Q 93.015625 38.09375 93.015625 32.078125 
Q 93.015625 19.234375 85.25 11.8125 
Q 77.484375 4.390625 63.8125 4.109375 
z
" id="DejaVuSans-64"/>
      <path d="M 40.578125 39.3125 
Q 47.65625 37.796875 51.625 33 
Q 55.609375 28.21875 55.609375 21.1875 
Q 55.609375 10.40625 48.1875 4.484375 
Q 40.765625 -1.421875 27.09375 -1.421875 
Q 22.515625 -1.421875 17.65625 -0.515625 
Q 12.796875 0.390625 7.625 2.203125 
L 7.625 11.71875 
Q 11.71875 9.328125 16.59375 8.109375 
Q 21.484375 6.890625 26.8125 6.890625 
Q 36.078125 6.890625 40.9375 10.546875 
Q 45.796875 14.203125 45.796875 21.1875 
Q 45.796875 27.640625 41.28125 31.265625 
Q 36.765625 34.90625 28.71875 34.90625 
L 20.21875 34.90625 
L 20.21875 43.015625 
L 29.109375 43.015625 
Q 36.375 43.015625 40.234375 45.921875 
Q 44.09375 48.828125 44.09375 54.296875 
Q 44.09375 59.90625 40.109375 62.90625 
Q 36.140625 65.921875 28.71875 65.921875 
Q 24.65625 65.921875 20.015625 65.03125 
Q 15.375 64.15625 9.8125 62.3125 
L 9.8125 71.09375 
Q 15.4375 72.65625 20.34375 73.4375 
Q 25.25 74.21875 29.59375 74.21875 
Q 40.828125 74.21875 47.359375 69.109375 
Q 53.90625 64.015625 53.90625 55.328125 
Q 53.90625 49.265625 50.4375 45.09375 
Q 46.96875 40.921875 40.578125 39.3125 
z
" id="DejaVuSans-51"/>
      <path d="M 9.8125 72.90625 
L 19.671875 72.90625 
L 19.671875 43.015625 
L 55.515625 43.015625 
L 55.515625 72.90625 
L 65.375 72.90625 
L 65.375 0 
L 55.515625 0 
L 55.515625 34.71875 
L 19.671875 34.71875 
L 19.671875 0 
L 9.8125 0 
z
" id="DejaVuSans-72"/>
      <path d="M 5.515625 54.6875 
L 48.1875 54.6875 
L 48.1875 46.484375 
L 14.40625 7.171875 
L 48.1875 7.171875 
L 48.1875 0 
L 4.296875 0 
L 4.296875 8.203125 
L 38.09375 47.515625 
L 5.515625 47.515625 
z
" id="DejaVuSans-122"/>
      <path d="M 19.671875 64.796875 
L 19.671875 37.40625 
L 32.078125 37.40625 
Q 38.96875 37.40625 42.71875 40.96875 
Q 46.484375 44.53125 46.484375 51.125 
Q 46.484375 57.671875 42.71875 61.234375 
Q 38.96875 64.796875 32.078125 64.796875 
z
M 9.8125 72.90625 
L 32.078125 72.90625 
Q 44.34375 72.90625 50.609375 67.359375 
Q 56.890625 61.8125 56.890625 51.125 
Q 56.890625 40.328125 50.609375 34.8125 
Q 44.34375 29.296875 32.078125 29.296875 
L 19.671875 29.296875 
L 19.671875 0 
L 9.8125 0 
z
" id="DejaVuSans-80"/>
      <path d="M 8.5 21.578125 
L 8.5 54.6875 
L 17.484375 54.6875 
L 17.484375 21.921875 
Q 17.484375 14.15625 20.5 10.265625 
Q 23.53125 6.390625 29.59375 6.390625 
Q 36.859375 6.390625 41.078125 11.03125 
Q 45.3125 15.671875 45.3125 23.6875 
L 45.3125 54.6875 
L 54.296875 54.6875 
L 54.296875 0 
L 45.3125 0 
L 45.3125 8.40625 
Q 42.046875 3.421875 37.71875 1 
Q 33.40625 -1.421875 27.6875 -1.421875 
Q 18.265625 -1.421875 13.375 4.4375 
Q 8.5 10.296875 8.5 21.578125 
z
M 31.109375 56 
z
" id="DejaVuSans-117"/>
      <path d="M 48.6875 27.296875 
Q 48.6875 37.203125 44.609375 42.84375 
Q 40.53125 48.484375 33.40625 48.484375 
Q 26.265625 48.484375 22.1875 42.84375 
Q 18.109375 37.203125 18.109375 27.296875 
Q 18.109375 17.390625 22.1875 11.75 
Q 26.265625 6.109375 33.40625 6.109375 
Q 40.53125 6.109375 44.609375 11.75 
Q 48.6875 17.390625 48.6875 27.296875 
z
M 18.109375 46.390625 
Q 20.953125 51.265625 25.265625 53.625 
Q 29.59375 56 35.59375 56 
Q 45.5625 56 51.78125 48.09375 
Q 58.015625 40.1875 58.015625 27.296875 
Q 58.015625 14.40625 51.78125 6.484375 
Q 45.5625 -1.421875 35.59375 -1.421875 
Q 29.59375 -1.421875 25.265625 0.953125 
Q 20.953125 3.328125 18.109375 8.203125 
L 18.109375 0 
L 9.078125 0 
L 9.078125 75.984375 
L 18.109375 75.984375 
z
" id="DejaVuSans-98"/>
      <path d="M 11.71875 12.40625 
L 22.015625 12.40625 
L 22.015625 4 
L 14.015625 -11.625 
L 7.71875 -11.625 
L 11.71875 4 
z
" id="DejaVuSans-44"/>
      <path d="M 4.890625 31.390625 
L 31.203125 31.390625 
L 31.203125 23.390625 
L 4.890625 23.390625 
z
" id="DejaVuSans-45"/>
      <path d="M 18.109375 8.203125 
L 18.109375 -20.796875 
L 9.078125 -20.796875 
L 9.078125 54.6875 
L 18.109375 54.6875 
L 18.109375 46.390625 
Q 20.953125 51.265625 25.265625 53.625 
Q 29.59375 56 35.59375 56 
Q 45.5625 56 51.78125 48.09375 
Q 58.015625 40.1875 58.015625 27.296875 
Q 58.015625 14.40625 51.78125 6.484375 
Q 45.5625 -1.421875 35.59375 -1.421875 
Q 29.59375 -1.421875 25.265625 0.953125 
Q 20.953125 3.328125 18.109375 8.203125 
z
M 48.6875 27.296875 
Q 48.6875 37.203125 44.609375 42.84375 
Q 40.53125 48.484375 33.40625 48.484375 
Q 26.265625 48.484375 22.1875 42.84375 
Q 18.109375 37.203125 18.109375 27.296875 
Q 18.109375 17.390625 22.1875 11.75 
Q 26.265625 6.109375 33.40625 6.109375 
Q 40.53125 6.109375 44.609375 11.75 
Q 48.6875 17.390625 48.6875 27.296875 
z
" id="DejaVuSans-112"/>
      <path d="M 45.40625 27.984375 
Q 45.40625 37.75 41.375 43.109375 
Q 37.359375 48.484375 30.078125 48.484375 
Q 22.859375 48.484375 18.828125 43.109375 
Q 14.796875 37.75 14.796875 27.984375 
Q 14.796875 18.265625 18.828125 12.890625 
Q 22.859375 7.515625 30.078125 7.515625 
Q 37.359375 7.515625 41.375 12.890625 
Q 45.40625 18.265625 45.40625 27.984375 
z
M 54.390625 6.78125 
Q 54.390625 -7.171875 48.1875 -13.984375 
Q 42 -20.796875 29.203125 -20.796875 
Q 24.46875 -20.796875 20.265625 -20.09375 
Q 16.0625 -19.390625 12.109375 -17.921875 
L 12.109375 -9.1875 
Q 16.0625 -11.328125 19.921875 -12.34375 
Q 23.78125 -13.375 27.78125 -13.375 
Q 36.625 -13.375 41.015625 -8.765625 
Q 45.40625 -4.15625 45.40625 5.171875 
L 45.40625 9.625 
Q 42.625 4.78125 38.28125 2.390625 
Q 33.9375 0 27.875 0 
Q 17.828125 0 11.671875 7.65625 
Q 5.515625 15.328125 5.515625 27.984375 
Q 5.515625 40.671875 11.671875 48.328125 
Q 17.828125 56 27.875 56 
Q 33.9375 56 38.28125 53.609375 
Q 42.625 51.21875 45.40625 46.390625 
L 45.40625 54.6875 
L 54.390625 54.6875 
z
" id="DejaVuSans-103"/>
      <path d="M 54.890625 33.015625 
L 54.890625 0 
L 45.90625 0 
L 45.90625 32.71875 
Q 45.90625 40.484375 42.875 44.328125 
Q 39.84375 48.1875 33.796875 48.1875 
Q 26.515625 48.1875 22.3125 43.546875 
Q 18.109375 38.921875 18.109375 30.90625 
L 18.109375 0 
L 9.078125 0 
L 9.078125 75.984375 
L 18.109375 75.984375 
L 18.109375 46.1875 
Q 21.34375 51.125 25.703125 53.5625 
Q 30.078125 56 35.796875 56 
Q 45.21875 56 50.046875 50.171875 
Q 54.890625 44.34375 54.890625 33.015625 
z
" id="DejaVuSans-104"/>
     </defs>
     <use xlink:href="#DejaVuSans-65"/>
     <use x="68.408203" xlink:href="#DejaVuSans-114"/>
     <use x="107.771484" xlink:href="#DejaVuSans-114"/>
     <use x="148.884766" xlink:href="#DejaVuSans-97"/>
     <use x="210.164062" xlink:href="#DejaVuSans-121"/>
     <use x="269.34375" xlink:href="#DejaVuSans-49"/>
     <use x="332.966797" xlink:href="#DejaVuSans-107"/>
     <use x="390.876953" xlink:href="#DejaVuSans-64"/>
     <use x="490.876953" xlink:href="#DejaVuSans-51"/>
     <use x="554.5" xlink:href="#DejaVuSans-48"/>
     <use x="618.123047" xlink:href="#DejaVuSans-72"/>
     <use x="693.318359" xlink:href="#DejaVuSans-122"/>
     <use x="745.808594" xlink:href="#DejaVuSans-32"/>
     <use x="777.595703" xlink:href="#DejaVuSans-49"/>
     <use x="841.21875" xlink:href="#DejaVuSans-32"/>
     <use x="873.005859" xlink:href="#DejaVuSans-80"/>
     <use x="931.558594" xlink:href="#DejaVuSans-117"/>
     <use x="994.9375" xlink:href="#DejaVuSans-98"/>
     <use x="1058.414062" xlink:href="#DejaVuSans-32"/>
     <use x="1090.201172" xlink:href="#DejaVuSans-116"/>
     <use x="1129.410156" xlink:href="#DejaVuSans-111"/>
     <use x="1190.591797" xlink:href="#DejaVuSans-32"/>
     <use x="1222.378906" xlink:href="#DejaVuSans-49"/>
     <use x="1286.001953" xlink:href="#DejaVuSans-32"/>
     <use x="1317.789062" xlink:href="#DejaVuSans-83"/>
     <use x="1381.265625" xlink:href="#DejaVuSans-117"/>
     <use x="1444.644531" xlink:href="#DejaVuSans-98"/>
     <use x="1508.121094" xlink:href="#DejaVuSans-44"/>
     <use x="1539.908203" xlink:href="#DejaVuSans-32"/>
     <use x="1571.695312" xlink:href="#DejaVuSans-109"/>
     <use x="1669.107422" xlink:href="#DejaVuSans-117"/>
     <use x="1732.486328" xlink:href="#DejaVuSans-108"/>
     <use x="1760.269531" xlink:href="#DejaVuSans-116"/>
     <use x="1799.478516" xlink:href="#DejaVuSans-105"/>
     <use x="1827.261719" xlink:href="#DejaVuSans-45"/>
     <use x="1863.345703" xlink:href="#DejaVuSans-112"/>
     <use x="1926.822266" xlink:href="#DejaVuSans-114"/>
     <use x="1965.685547" xlink:href="#DejaVuSans-111"/>
     <use x="2026.867188" xlink:href="#DejaVuSans-99"/>
     <use x="2081.847656" xlink:href="#DejaVuSans-101"/>
     <use x="2143.371094" xlink:href="#DejaVuSans-115"/>
     <use x="2195.470703" xlink:href="#DejaVuSans-115"/>
     <use x="2247.570312" xlink:href="#DejaVuSans-101"/>
     <use x="2309.09375" xlink:href="#DejaVuSans-115"/>
     <use x="2361.193359" xlink:href="#DejaVuSans-44"/>
     <use x="2392.980469" xlink:href="#DejaVuSans-32"/>
     <use x="2424.767578" xlink:href="#DejaVuSans-115"/>
     <use x="2476.867188" xlink:href="#DejaVuSans-105"/>
     <use x="2504.650391" xlink:href="#DejaVuSans-110"/>
     <use x="2568.029297" xlink:href="#DejaVuSans-103"/>
     <use x="2631.505859" xlink:href="#DejaVuSans-108"/>
     <use x="2659.289062" xlink:href="#DejaVuSans-101"/>
     <use x="2720.8125" xlink:href="#DejaVuSans-32"/>
     <use x="2752.599609" xlink:href="#DejaVuSans-109"/>
     <use x="2850.011719" xlink:href="#DejaVuSans-97"/>
     <use x="2911.291016" xlink:href="#DejaVuSans-99"/>
     <use x="2966.271484" xlink:href="#DejaVuSans-104"/>
     <use x="3029.650391" xlink:href="#DejaVuSans-105"/>
     <use x="3057.433594" xlink:href="#DejaVuSans-110"/>
     <use x="3120.8125" xlink:href="#DejaVuSans-101"/>
    </g>
    <!-- rmw_cyclonedds_cpp sync, reliable, volatile, keep_last@10 -->
    <g transform="translate(42.22875 29.7555)scale(0.12 -0.12)">
     <defs>
      <path d="M 4.203125 54.6875 
L 13.1875 54.6875 
L 24.421875 12.015625 
L 35.59375 54.6875 
L 46.1875 54.6875 
L 57.421875 12.015625 
L 68.609375 54.6875 
L 77.59375 54.6875 
L 63.28125 0 
L 52.6875 0 
L 40.921875 44.828125 
L 29.109375 0 
L 18.5 0 
z
" id="DejaVuSans-119"/>
      <path d="M 50.984375 -16.609375 
L 50.984375 -23.578125 
L -0.984375 -23.578125 
L -0.984375 -16.609375 
z
" id="DejaVuSans-95"/>
      <path d="M 2.984375 54.6875 
L 12.5 54.6875 
L 29.59375 8.796875 
L 46.6875 54.6875 
L 56.203125 54.6875 
L 35.6875 0 
L 23.484375 0 
z
" id="DejaVuSans-118"/>
     </defs>
     <use xlink:href="#DejaVuSans-114"/>
     <use x="39.363281" xlink:href="#DejaVuSans-109"/>
     <use x="136.775391" xlink:href="#DejaVuSans-119"/>
     <use x="218.5625" xlink:href="#DejaVuSans-95"/>
     <use x="268.5625" xlink:href="#DejaVuSans-99"/>
     <use x="323.542969" xlink:href="#DejaVuSans-121"/>
     <use x="382.722656" xlink:href="#DejaVuSans-99"/>
     <use x="437.703125" xlink:href="#DejaVuSans-108"/>
     <use x="465.486328" xlink:href="#DejaVuSans-111"/>
     <use x="526.667969" xlink:href="#DejaVuSans-110"/>
     <use x="590.046875" xlink:href="#DejaVuSans-101"/>
     <use x="651.570312" xlink:href="#DejaVuSans-100"/>
     <use x="715.046875" xlink:href="#DejaVuSans-100"/>
     <use x="778.523438" xlink:href="#DejaVuSans-115"/>
     <use x="830.623047" xlink:href="#DejaVuSans-95"/>
     <use x="880.623047" xlink:href="#DejaVuSans-99"/>
     <use x="935.603516" xlink:href="#DejaVuSans-112"/>
     <use x="999.080078" xlink:href="#DejaVuSans-112"/>
     <use x="1062.556641" xlink:href="#DejaVuSans-32"/>
     <use x="1094.34375" xlink:href="#DejaVuSans-115"/>
     <use x="1146.443359" xlink:href="#DejaVuSans-121"/>
     <use x="1205.623047" xlink:href="#DejaVuSans-110"/>
     <use x="1269.001953" xlink:href="#DejaVuSans-99"/>
     <use x="1323.982422" xlink:href="#DejaVuSans-44"/>
     <use x="1355.769531" xlink:href="#DejaVuSans-32"/>
     <use x="1387.556641" xlink:href="#DejaVuSans-114"/>
     <use x="1426.419922" xlink:href="#DejaVuSans-101"/>
     <use x="1487.943359" xlink:href="#DejaVuSans-108"/>
     <use x="1515.726562" xlink:href="#DejaVuSans-105"/>
     <use x="1543.509766" xlink:href="#DejaVuSans-97"/>
     <use x="1604.789062" xlink:href="#DejaVuSans-98"/>
     <use x="1668.265625" xlink:href="#DejaVuSans-108"/>
     <use x="1696.048828" xlink:href="#DejaVuSans-101"/>
     <use x="1757.572266" xlink:href="#DejaVuSans-44"/>
     <use x="1789.359375" xlink:href="#DejaVuSans-32"/>
     <use x="1821.146484" xlink:href="#DejaVuSans-118"/>
     <use x="1880.326172" xlink:href="#DejaVuSans-111"/>
     <use x="1941.507812" xlink:href="#DejaVuSans-108"/>
     <use x="1969.291016" xlink:href="#DejaVuSans-97"/>
     <use x="2030.570312" xlink:href="#DejaVuSans-116"/>
     <use x="2069.779297" xlink:href="#DejaVuSans-105"/>
     <use x="2097.5625" xlink:href="#DejaVuSans-108"/>
     <use x="2125.345703" xlink:href="#DejaVuSans-101"/>
     <use x="2186.869141" xlink:href="#DejaVuSans-44"/>
     <use x="2218.65625" xlink:href="#DejaVuSans-32"/>
     <use x="2250.443359" xlink:href="#DejaVuSans-107"/>
     <use x="2304.728516" xlink:href="#DejaVuSans-101"/>
     <use x="2366.251953" xlink:href="#DejaVuSans-101"/>
     <use x="2427.775391" xlink:href="#DejaVuSans-112"/>
     <use x="2491.251953" xlink:href="#DejaVuSans-95"/>
     <use x="2541.251953" xlink:href="#DejaVuSans-108"/>
     <use x="2569.035156" xlink:href="#DejaVuSans-97"/>
     <use x="2630.314453" xlink:href="#DejaVuSans-115"/>
     <use x="2682.414062" xlink:href="#DejaVuSans-116"/>
     <use x="2721.623047" xlink:href="#DejaVuSans-64"/>
     <use x="2821.623047" xlink:href="#DejaVuSans-49"/>
     <use x="2885.246094" xlink:href="#DejaVuSans-48"/>
    </g>
    <!-- bandwidth: 1000Mbps, packet loss: 10%, delay: 0ms -->
    <g transform="translate(61.259063 43.526625)scale(0.12 -0.12)">
     <defs>
      <path d="M 11.71875 12.40625 
L 22.015625 12.40625 
L 22.015625 0 
L 11.71875 0 
z
M 11.71875 51.703125 
L 22.015625 51.703125 
L 22.015625 39.3125 
L 11.71875 39.3125 
z
" id="DejaVuSans-58"/>
      <path d="M 72.703125 32.078125 
Q 68.453125 32.078125 66.03125 28.46875 
Q 63.625 24.859375 63.625 18.40625 
Q 63.625 12.0625 66.03125 8.421875 
Q 68.453125 4.78125 72.703125 4.78125 
Q 76.859375 4.78125 79.265625 8.421875 
Q 81.6875 12.0625 81.6875 18.40625 
Q 81.6875 24.8125 79.265625 28.4375 
Q 76.859375 32.078125 72.703125 32.078125 
z
M 72.703125 38.28125 
Q 80.421875 38.28125 84.953125 32.90625 
Q 89.5 27.546875 89.5 18.40625 
Q 89.5 9.28125 84.9375 3.921875 
Q 80.375 -1.421875 72.703125 -1.421875 
Q 64.890625 -1.421875 60.34375 3.921875 
Q 55.8125 9.28125 55.8125 18.40625 
Q 55.8125 27.59375 60.375 32.9375 
Q 64.9375 38.28125 72.703125 38.28125 
z
M 22.3125 68.015625 
Q 18.109375 68.015625 15.6875 64.375 
Q 13.28125 60.75 13.28125 54.390625 
Q 13.28125 47.953125 15.671875 44.328125 
Q 18.0625 40.71875 22.3125 40.71875 
Q 26.5625 40.71875 28.96875 44.328125 
Q 31.390625 47.953125 31.390625 54.390625 
Q 31.390625 60.6875 28.953125 64.34375 
Q 26.515625 68.015625 22.3125 68.015625 
z
M 66.40625 74.21875 
L 74.21875 74.21875 
L 28.609375 -1.421875 
L 20.796875 -1.421875 
z
M 22.3125 74.21875 
Q 30.03125 74.21875 34.609375 68.875 
Q 39.203125 63.53125 39.203125 54.390625 
Q 39.203125 45.171875 34.640625 39.84375 
Q 30.078125 34.515625 22.3125 34.515625 
Q 14.546875 34.515625 10.03125 39.859375 
Q 5.515625 45.21875 5.515625 54.390625 
Q 5.515625 63.484375 10.046875 68.84375 
Q 14.59375 74.21875 22.3125 74.21875 
z
" id="DejaVuSans-37"/>
     </defs>
     <use xlink:href="#DejaVuSans-98"/>
     <use x="63.476562" xlink:href="#DejaVuSans-97"/>
     <use x="124.755859" xlink:href="#DejaVuSans-110"/>
     <use x="188.134766" xlink:href="#DejaVuSans-100"/>
     <use x="251.611328" xlink:href="#DejaVuSans-119"/>
     <use x="333.398438" xlink:href="#DejaVuSans-105"/>
     <use x="361.181641" xlink:href="#DejaVuSans-100"/>
     <use x="424.658203" xlink:href="#DejaVuSans-116"/>
     <use x="463.867188" xlink:href="#DejaVuSans-104"/>
     <use x="527.246094" xlink:href="#DejaVuSans-58"/>
     <use x="560.9375" xlink:href="#DejaVuSans-32"/>
     <use x="592.724609" xlink:href="#DejaVuSans-49"/>
     <use x="656.347656" xlink:href="#DejaVuSans-48"/>
     <use x="719.970703" xlink:href="#DejaVuSans-48"/>
     <use x="783.59375" xlink:href="#DejaVuSans-48"/>
     <use x="847.216797" xlink:href="#DejaVuSans-77"/>
     <use x="933.496094" xlink:href="#DejaVuSans-98"/>
     <use x="996.972656" xlink:href="#DejaVuSans-112"/>
     <use x="1060.449219" xlink:href="#DejaVuSans-115"/>
     <use x="1112.548828" xlink:href="#DejaVuSans-44"/>
     <use x="1144.335938" xlink:href="#DejaVuSans-32"/>
     <use x="1176.123047" xlink:href="#DejaVuSans-112"/>
     <use x="1239.599609" xlink:href="#DejaVuSans-97"/>
     <use x="1300.878906" xlink:href="#DejaVuSans-99"/>
     <use x="1355.859375" xlink:href="#DejaVuSans-107"/>
     <use x="1410.144531" xlink:href="#DejaVuSans-101"/>
     <use x="1471.667969" xlink:href="#DejaVuSans-116"/>
     <use x="1510.876953" xlink:href="#DejaVuSans-32"/>
     <use x="1542.664062" xlink:href="#DejaVuSans-108"/>
     <use x="1570.447266" xlink:href="#DejaVuSans-111"/>
     <use x="1631.628906" xlink:href="#DejaVuSans-115"/>
     <use x="1683.728516" xlink:href="#DejaVuSans-115"/>
     <use x="1735.828125" xlink:href="#DejaVuSans-58"/>
     <use x="1769.519531" xlink:href="#DejaVuSans-32"/>
     <use x="1801.306641" xlink:href="#DejaVuSans-49"/>
     <use x="1864.929688" xlink:href="#DejaVuSans-48"/>
     <use x="1928.552734" xlink:href="#DejaVuSans-37"/>
     <use x="2023.572266" xlink:href="#DejaVuSans-44"/>
     <use x="2055.359375" xlink:href="#DejaVuSans-32"/>
     <use x="2087.146484" xlink:href="#DejaVuSans-100"/>
     <use x="2150.623047" xlink:href="#DejaVuSans-101"/>
     <use x="2212.146484" xlink:href="#DejaVuSans-108"/>
     <use x="2239.929688" xlink:href="#DejaVuSans-97"/>
     <use x="2301.208984" xlink:href="#DejaVuSans-121"/>
     <use x="2353.138672" xlink:href="#DejaVuSans-58"/>
     <use x="2386.830078" xlink:href="#DejaVuSans-32"/>
     <use x="2418.617188" xlink:href="#DejaVuSans-48"/>
     <use x="2482.240234" xlink:href="#DejaVuSans-109"/>
     <use x="2579.652344" xlink:href="#DejaVuSans-115"/>
    </g>
   </g>
   <g id="legend_1">
    <g id="patch_7">
     <path d="M 173.191875 86.882875 
L 390.723125 86.882875 
Q 392.723125 86.882875 392.723125 84.882875 
L 392.723125 56.526625 
Q 392.723125 54.526625 390.723125 54.526625 
L 173.191875 54.526625 
Q 171.191875 54.526625 171.191875 56.526625 
L 171.191875 84.882875 
Q 171.191875 86.882875 173.191875 86.882875 
z
" style="fill:#ffffff;opacity:0.8;stroke:#cccccc;stroke-linejoin:miter;"/>
    </g>
    <g id="line2d_51">
     <path d="M 175.191875 62.625062 
L 195.191875 62.625062 
" style="fill:none;stroke:#ff0000;stroke-linecap:square;stroke-width:1.5;"/>
    </g>
    <g id="line2d_52"/>
    <g id="text_17">
     <!-- Average Latency Mean N=10 (inf) -->
     <g transform="translate(203.191875 66.125062)scale(0.1 -0.1)">
      <defs>
       <path d="M 9.8125 72.90625 
L 23.09375 72.90625 
L 55.421875 11.921875 
L 55.421875 72.90625 
L 64.984375 72.90625 
L 64.984375 0 
L 51.703125 0 
L 19.390625 60.984375 
L 19.390625 0 
L 9.8125 0 
z
" id="DejaVuSans-78"/>
       <path d="M 10.59375 45.40625 
L 73.1875 45.40625 
L 73.1875 37.203125 
L 10.59375 37.203125 
z
M 10.59375 25.484375 
L 73.1875 25.484375 
L 73.1875 17.1875 
L 10.59375 17.1875 
z
" id="DejaVuSans-61"/>
       <path d="M 31 75.875 
Q 24.46875 64.65625 21.28125 53.65625 
Q 18.109375 42.671875 18.109375 31.390625 
Q 18.109375 20.125 21.3125 9.0625 
Q 24.515625 -2 31 -13.1875 
L 23.1875 -13.1875 
Q 15.875 -1.703125 12.234375 9.375 
Q 8.59375 20.453125 8.59375 31.390625 
Q 8.59375 42.28125 12.203125 53.3125 
Q 15.828125 64.359375 23.1875 75.875 
z
" id="DejaVuSans-40"/>
       <path d="M 37.109375 75.984375 
L 37.109375 68.5 
L 28.515625 68.5 
Q 23.6875 68.5 21.796875 66.546875 
Q 19.921875 64.59375 19.921875 59.515625 
L 19.921875 54.6875 
L 34.71875 54.6875 
L 34.71875 47.703125 
L 19.921875 47.703125 
L 19.921875 0 
L 10.890625 0 
L 10.890625 47.703125 
L 2.296875 47.703125 
L 2.296875 54.6875 
L 10.890625 54.6875 
L 10.890625 58.5 
Q 10.890625 67.625 15.140625 71.796875 
Q 19.390625 75.984375 28.609375 75.984375 
z
" id="DejaVuSans-102"/>
       <path d="M 8.015625 75.875 
L 15.828125 75.875 
Q 23.140625 64.359375 26.78125 53.3125 
Q 30.421875 42.28125 30.421875 31.390625 
Q 30.421875 20.453125 26.78125 9.375 
Q 23.140625 -1.703125 15.828125 -13.1875 
L 8.015625 -13.1875 
Q 14.5 -2 17.703125 9.0625 
Q 20.90625 20.125 20.90625 31.390625 
Q 20.90625 42.671875 17.703125 53.65625 
Q 14.5 64.65625 8.015625 75.875 
z
" id="DejaVuSans-41"/>
      </defs>
      <use xlink:href="#DejaVuSans-65"/>
      <use x="62.533203" xlink:href="#DejaVuSans-118"/>
      <use x="121.712891" xlink:href="#DejaVuSans-101"/>
      <use x="183.236328" xlink:href="#DejaVuSans-114"/>
      <use x="224.349609" xlink:href="#DejaVuSans-97"/>
      <use x="285.628906" xlink:href="#DejaVuSans-103"/>
      <use x="349.105469" xlink:href="#DejaVuSans-101"/>
      <use x="410.628906" xlink:href="#DejaVuSans-32"/>
      <use x="442.416016" xlink:href="#DejaVuSans-76"/>
      <use x="498.128906" xlink:href="#DejaVuSans-97"/>
      <use x="559.408203" xlink:href="#DejaVuSans-116"/>
      <use x="598.617188" xlink:href="#DejaVuSans-101"/>
      <use x="660.140625" xlink:href="#DejaVuSans-110"/>
      <use x="723.519531" xlink:href="#DejaVuSans-99"/>
      <use x="778.5" xlink:href="#DejaVuSans-121"/>
      <use x="837.679688" xlink:href="#DejaVuSans-32"/>
      <use x="869.466797" xlink:href="#DejaVuSans-77"/>
      <use x="955.746094" xlink:href="#DejaVuSans-101"/>
      <use x="1017.269531" xlink:href="#DejaVuSans-97"/>
      <use x="1078.548828" xlink:href="#DejaVuSans-110"/>
      <use x="1141.927734" xlink:href="#DejaVuSans-32"/>
      <use x="1173.714844" xlink:href="#DejaVuSans-78"/>
      <use x="1248.519531" xlink:href="#DejaVuSans-61"/>
      <use x="1332.308594" xlink:href="#DejaVuSans-49"/>
      <use x="1395.931641" xlink:href="#DejaVuSans-48"/>
      <use x="1459.554688" xlink:href="#DejaVuSans-32"/>
      <use x="1491.341797" xlink:href="#DejaVuSans-40"/>
      <use x="1530.355469" xlink:href="#DejaVuSans-105"/>
      <use x="1558.138672" xlink:href="#DejaVuSans-110"/>
      <use x="1621.517578" xlink:href="#DejaVuSans-102"/>
      <use x="1656.722656" xlink:href="#DejaVuSans-41"/>
     </g>
    </g>
    <g id="line2d_53">
     <path d="M 175.191875 77.303187 
L 195.191875 77.303187 
" style="fill:none;stroke:#800080;stroke-linecap:square;stroke-width:1.5;"/>
    </g>
    <g id="line2d_54"/>
    <g id="text_18">
     <!-- Average Latency Variance N=10 (inf) -->
     <g transform="translate(203.191875 80.803187)scale(0.1 -0.1)">
      <defs>
       <path d="M 28.609375 0 
L 0.78125 72.90625 
L 11.078125 72.90625 
L 34.1875 11.53125 
L 57.328125 72.90625 
L 67.578125 72.90625 
L 39.796875 0 
z
" id="DejaVuSans-86"/>
      </defs>
      <use xlink:href="#DejaVuSans-65"/>
      <use x="62.533203" xlink:href="#DejaVuSans-118"/>
      <use x="121.712891" xlink:href="#DejaVuSans-101"/>
      <use x="183.236328" xlink:href="#DejaVuSans-114"/>
      <use x="224.349609" xlink:href="#DejaVuSans-97"/>
      <use x="285.628906" xlink:href="#DejaVuSans-103"/>
      <use x="349.105469" xlink:href="#DejaVuSans-101"/>
      <use x="410.628906" xlink:href="#DejaVuSans-32"/>
      <use x="442.416016" xlink:href="#DejaVuSans-76"/>
      <use x="498.128906" xlink:href="#DejaVuSans-97"/>
      <use x="559.408203" xlink:href="#DejaVuSans-116"/>
      <use x="598.617188" xlink:href="#DejaVuSans-101"/>
      <use x="660.140625" xlink:href="#DejaVuSans-110"/>
      <use x="723.519531" xlink:href="#DejaVuSans-99"/>
      <use x="778.5" xlink:href="#DejaVuSans-121"/>
      <use x="837.679688" xlink:href="#DejaVuSans-32"/>
      <use x="869.466797" xlink:href="#DejaVuSans-86"/>
      <use x="930.125" xlink:href="#DejaVuSans-97"/>
      <use x="991.404297" xlink:href="#DejaVuSans-114"/>
      <use x="1032.517578" xlink:href="#DejaVuSans-105"/>
      <use x="1060.300781" xlink:href="#DejaVuSans-97"/>
      <use x="1121.580078" xlink:href="#DejaVuSans-110"/>
      <use x="1184.958984" xlink:href="#DejaVuSans-99"/>
      <use x="1239.939453" xlink:href="#DejaVuSans-101"/>
      <use x="1301.462891" xlink:href="#DejaVuSans-32"/>
      <use x="1333.25" xlink:href="#DejaVuSans-78"/>
      <use x="1408.054688" xlink:href="#DejaVuSans-61"/>
      <use x="1491.84375" xlink:href="#DejaVuSans-49"/>
      <use x="1555.466797" xlink:href="#DejaVuSans-48"/>
      <use x="1619.089844" xlink:href="#DejaVuSans-32"/>
      <use x="1650.876953" xlink:href="#DejaVuSans-40"/>
      <use x="1689.890625" xlink:href="#DejaVuSans-105"/>
      <use x="1717.673828" xlink:href="#DejaVuSans-110"/>
      <use x="1781.052734" xlink:href="#DejaVuSans-102"/>
      <use x="1816.257812" xlink:href="#DejaVuSans-41"/>
     </g>
    </g>
   </g>
  </g>
 </g>
 <defs>
  <clipPath id="p58a7525887">
   <rect height="266.112" width="357.12" x="40.603125" y="49.526625"/>
  </clipPath>
 </defs>
</svg>
