<?xml version="1.0" encoding="utf-8" standalone="no"?>
<!DOCTYPE svg PUBLIC "-//W3C//DTD SVG 1.1//EN"
  "http://www.w3.org/Graphics/SVG/1.1/DTD/svg11.dtd">
<!-- Created with matplotlib (https://matplotlib.org/) -->
<svg height="353.194875pt" version="1.1" viewBox="0 0 430.025 353.194875" width="430.025pt" xmlns="http://www.w3.org/2000/svg" xmlns:xlink="http://www.w3.org/1999/xlink">
 <metadata>
  <rdf:RDF xmlns:cc="http://creativecommons.org/ns#" xmlns:dc="http://purl.org/dc/elements/1.1/" xmlns:rdf="http://www.w3.org/1999/02/22-rdf-syntax-ns#">
   <cc:Work>
    <dc:type rdf:resource="http://purl.org/dc/dcmitype/StillImage"/>
    <dc:date>2020-11-03T13:15:16.542772</dc:date>
    <dc:format>image/svg+xml</dc:format>
    <dc:creator>
     <cc:Agent>
      <dc:title>Matplotlib v3.3.2, https://matplotlib.org/</dc:title>
     </cc:Agent>
    </dc:creator>
   </cc:Work>
  </rdf:RDF>
 </metadata>
 <defs>
  <style type="text/css">*{stroke-linecap:butt;stroke-linejoin:round;}</style>
 </defs>
 <g id="figure_1">
  <g id="patch_1">
   <path d="M 0 353.194875 
L 430.025 353.194875 
L 430.025 0 
L 0 0 
z
" style="fill:#ffffff;"/>
  </g>
  <g id="axes_1">
   <g id="patch_2">
    <path d="M 53.328125 315.638625 
L 410.448125 315.638625 
L 410.448125 49.526625 
L 53.328125 49.526625 
z
" style="fill:#ffffff;"/>
   </g>
   <g id="matplotlib.axis_1">
    <g id="xtick_1">
     <g id="line2d_1">
      <path clip-path="url(#pd8ba6c61d3)" d="M 77.136125 315.638625 
L 77.136125 49.526625 
" style="fill:none;stroke:#b0b0b0;stroke-linecap:square;stroke-width:0.8;"/>
     </g>
     <g id="line2d_2">
      <defs>
       <path d="M 0 0 
L 0 3.5 
" id="ma00dc86cb7" style="stroke:#000000;stroke-width:0.8;"/>
      </defs>
      <g>
       <use style="stroke:#000000;stroke-width:0.8;" x="77.136125" xlink:href="#ma00dc86cb7" y="315.638625"/>
      </g>
     </g>
     <g id="text_1">
      <!-- 2 -->
      <g transform="translate(73.954875 330.237062)scale(0.1 -0.1)">
       <defs>
        <path d="M 19.1875 8.296875 
L 53.609375 8.296875 
L 53.609375 0 
L 7.328125 0 
L 7.328125 8.296875 
Q 12.9375 14.109375 22.625 23.890625 
Q 32.328125 33.6875 34.8125 36.53125 
Q 39.546875 41.84375 41.421875 45.53125 
Q 43.3125 49.21875 43.3125 52.78125 
Q 43.3125 58.59375 39.234375 62.25 
Q 35.15625 65.921875 28.609375 65.921875 
Q 23.96875 65.921875 18.8125 64.3125 
Q 13.671875 62.703125 7.8125 59.421875 
L 7.8125 69.390625 
Q 13.765625 71.78125 18.9375 73 
Q 24.125 74.21875 28.421875 74.21875 
Q 39.75 74.21875 46.484375 68.546875 
Q 53.21875 62.890625 53.21875 53.421875 
Q 53.21875 48.921875 51.53125 44.890625 
Q 49.859375 40.875 45.40625 35.40625 
Q 44.1875 33.984375 37.640625 27.21875 
Q 31.109375 20.453125 19.1875 8.296875 
z
" id="DejaVuSans-50"/>
       </defs>
       <use xlink:href="#DejaVuSans-50"/>
      </g>
     </g>
    </g>
    <g id="xtick_2">
     <g id="line2d_3">
      <path clip-path="url(#pd8ba6c61d3)" d="M 124.752125 315.638625 
L 124.752125 49.526625 
" style="fill:none;stroke:#b0b0b0;stroke-linecap:square;stroke-width:0.8;"/>
     </g>
     <g id="line2d_4">
      <g>
       <use style="stroke:#000000;stroke-width:0.8;" x="124.752125" xlink:href="#ma00dc86cb7" y="315.638625"/>
      </g>
     </g>
     <g id="text_2">
      <!-- 4 -->
      <g transform="translate(121.570875 330.237062)scale(0.1 -0.1)">
       <defs>
        <path d="M 37.796875 64.3125 
L 12.890625 25.390625 
L 37.796875 25.390625 
z
M 35.203125 72.90625 
L 47.609375 72.90625 
L 47.609375 25.390625 
L 58.015625 25.390625 
L 58.015625 17.1875 
L 47.609375 17.1875 
L 47.609375 0 
L 37.796875 0 
L 37.796875 17.1875 
L 4.890625 17.1875 
L 4.890625 26.703125 
z
" id="DejaVuSans-52"/>
       </defs>
       <use xlink:href="#DejaVuSans-52"/>
      </g>
     </g>
    </g>
    <g id="xtick_3">
     <g id="line2d_5">
      <path clip-path="url(#pd8ba6c61d3)" d="M 172.368125 315.638625 
L 172.368125 49.526625 
" style="fill:none;stroke:#b0b0b0;stroke-linecap:square;stroke-width:0.8;"/>
     </g>
     <g id="line2d_6">
      <g>
       <use style="stroke:#000000;stroke-width:0.8;" x="172.368125" xlink:href="#ma00dc86cb7" y="315.638625"/>
      </g>
     </g>
     <g id="text_3">
      <!-- 6 -->
      <g transform="translate(169.186875 330.237062)scale(0.1 -0.1)">
       <defs>
        <path d="M 33.015625 40.375 
Q 26.375 40.375 22.484375 35.828125 
Q 18.609375 31.296875 18.609375 23.390625 
Q 18.609375 15.53125 22.484375 10.953125 
Q 26.375 6.390625 33.015625 6.390625 
Q 39.65625 6.390625 43.53125 10.953125 
Q 47.40625 15.53125 47.40625 23.390625 
Q 47.40625 31.296875 43.53125 35.828125 
Q 39.65625 40.375 33.015625 40.375 
z
M 52.59375 71.296875 
L 52.59375 62.3125 
Q 48.875 64.0625 45.09375 64.984375 
Q 41.3125 65.921875 37.59375 65.921875 
Q 27.828125 65.921875 22.671875 59.328125 
Q 17.53125 52.734375 16.796875 39.40625 
Q 19.671875 43.65625 24.015625 45.921875 
Q 28.375 48.1875 33.59375 48.1875 
Q 44.578125 48.1875 50.953125 41.515625 
Q 57.328125 34.859375 57.328125 23.390625 
Q 57.328125 12.15625 50.6875 5.359375 
Q 44.046875 -1.421875 33.015625 -1.421875 
Q 20.359375 -1.421875 13.671875 8.265625 
Q 6.984375 17.96875 6.984375 36.375 
Q 6.984375 53.65625 15.1875 63.9375 
Q 23.390625 74.21875 37.203125 74.21875 
Q 40.921875 74.21875 44.703125 73.484375 
Q 48.484375 72.75 52.59375 71.296875 
z
" id="DejaVuSans-54"/>
       </defs>
       <use xlink:href="#DejaVuSans-54"/>
      </g>
     </g>
    </g>
    <g id="xtick_4">
     <g id="line2d_7">
      <path clip-path="url(#pd8ba6c61d3)" d="M 219.984125 315.638625 
L 219.984125 49.526625 
" style="fill:none;stroke:#b0b0b0;stroke-linecap:square;stroke-width:0.8;"/>
     </g>
     <g id="line2d_8">
      <g>
       <use style="stroke:#000000;stroke-width:0.8;" x="219.984125" xlink:href="#ma00dc86cb7" y="315.638625"/>
      </g>
     </g>
     <g id="text_4">
      <!-- 8 -->
      <g transform="translate(216.802875 330.237062)scale(0.1 -0.1)">
       <defs>
        <path d="M 31.78125 34.625 
Q 24.75 34.625 20.71875 30.859375 
Q 16.703125 27.09375 16.703125 20.515625 
Q 16.703125 13.921875 20.71875 10.15625 
Q 24.75 6.390625 31.78125 6.390625 
Q 38.8125 6.390625 42.859375 10.171875 
Q 46.921875 13.96875 46.921875 20.515625 
Q 46.921875 27.09375 42.890625 30.859375 
Q 38.875 34.625 31.78125 34.625 
z
M 21.921875 38.8125 
Q 15.578125 40.375 12.03125 44.71875 
Q 8.5 49.078125 8.5 55.328125 
Q 8.5 64.0625 14.71875 69.140625 
Q 20.953125 74.21875 31.78125 74.21875 
Q 42.671875 74.21875 48.875 69.140625 
Q 55.078125 64.0625 55.078125 55.328125 
Q 55.078125 49.078125 51.53125 44.71875 
Q 48 40.375 41.703125 38.8125 
Q 48.828125 37.15625 52.796875 32.3125 
Q 56.78125 27.484375 56.78125 20.515625 
Q 56.78125 9.90625 50.3125 4.234375 
Q 43.84375 -1.421875 31.78125 -1.421875 
Q 19.734375 -1.421875 13.25 4.234375 
Q 6.78125 9.90625 6.78125 20.515625 
Q 6.78125 27.484375 10.78125 32.3125 
Q 14.796875 37.15625 21.921875 38.8125 
z
M 18.3125 54.390625 
Q 18.3125 48.734375 21.84375 45.5625 
Q 25.390625 42.390625 31.78125 42.390625 
Q 38.140625 42.390625 41.71875 45.5625 
Q 45.3125 48.734375 45.3125 54.390625 
Q 45.3125 60.0625 41.71875 63.234375 
Q 38.140625 66.40625 31.78125 66.40625 
Q 25.390625 66.40625 21.84375 63.234375 
Q 18.3125 60.0625 18.3125 54.390625 
z
" id="DejaVuSans-56"/>
       </defs>
       <use xlink:href="#DejaVuSans-56"/>
      </g>
     </g>
    </g>
    <g id="xtick_5">
     <g id="line2d_9">
      <path clip-path="url(#pd8ba6c61d3)" d="M 267.600125 315.638625 
L 267.600125 49.526625 
" style="fill:none;stroke:#b0b0b0;stroke-linecap:square;stroke-width:0.8;"/>
     </g>
     <g id="line2d_10">
      <g>
       <use style="stroke:#000000;stroke-width:0.8;" x="267.600125" xlink:href="#ma00dc86cb7" y="315.638625"/>
      </g>
     </g>
     <g id="text_5">
      <!-- 10 -->
      <g transform="translate(261.237625 330.237062)scale(0.1 -0.1)">
       <defs>
        <path d="M 12.40625 8.296875 
L 28.515625 8.296875 
L 28.515625 63.921875 
L 10.984375 60.40625 
L 10.984375 69.390625 
L 28.421875 72.90625 
L 38.28125 72.90625 
L 38.28125 8.296875 
L 54.390625 8.296875 
L 54.390625 0 
L 12.40625 0 
z
" id="DejaVuSans-49"/>
        <path d="M 31.78125 66.40625 
Q 24.171875 66.40625 20.328125 58.90625 
Q 16.5 51.421875 16.5 36.375 
Q 16.5 21.390625 20.328125 13.890625 
Q 24.171875 6.390625 31.78125 6.390625 
Q 39.453125 6.390625 43.28125 13.890625 
Q 47.125 21.390625 47.125 36.375 
Q 47.125 51.421875 43.28125 58.90625 
Q 39.453125 66.40625 31.78125 66.40625 
z
M 31.78125 74.21875 
Q 44.046875 74.21875 50.515625 64.515625 
Q 56.984375 54.828125 56.984375 36.375 
Q 56.984375 17.96875 50.515625 8.265625 
Q 44.046875 -1.421875 31.78125 -1.421875 
Q 19.53125 -1.421875 13.0625 8.265625 
Q 6.59375 17.96875 6.59375 36.375 
Q 6.59375 54.828125 13.0625 64.515625 
Q 19.53125 74.21875 31.78125 74.21875 
z
" id="DejaVuSans-48"/>
       </defs>
       <use xlink:href="#DejaVuSans-49"/>
       <use x="63.623047" xlink:href="#DejaVuSans-48"/>
      </g>
     </g>
    </g>
    <g id="xtick_6">
     <g id="line2d_11">
      <path clip-path="url(#pd8ba6c61d3)" d="M 315.216125 315.638625 
L 315.216125 49.526625 
" style="fill:none;stroke:#b0b0b0;stroke-linecap:square;stroke-width:0.8;"/>
     </g>
     <g id="line2d_12">
      <g>
       <use style="stroke:#000000;stroke-width:0.8;" x="315.216125" xlink:href="#ma00dc86cb7" y="315.638625"/>
      </g>
     </g>
     <g id="text_6">
      <!-- 12 -->
      <g transform="translate(308.853625 330.237062)scale(0.1 -0.1)">
       <use xlink:href="#DejaVuSans-49"/>
       <use x="63.623047" xlink:href="#DejaVuSans-50"/>
      </g>
     </g>
    </g>
    <g id="xtick_7">
     <g id="line2d_13">
      <path clip-path="url(#pd8ba6c61d3)" d="M 362.832125 315.638625 
L 362.832125 49.526625 
" style="fill:none;stroke:#b0b0b0;stroke-linecap:square;stroke-width:0.8;"/>
     </g>
     <g id="line2d_14">
      <g>
       <use style="stroke:#000000;stroke-width:0.8;" x="362.832125" xlink:href="#ma00dc86cb7" y="315.638625"/>
      </g>
     </g>
     <g id="text_7">
      <!-- 14 -->
      <g transform="translate(356.469625 330.237062)scale(0.1 -0.1)">
       <use xlink:href="#DejaVuSans-49"/>
       <use x="63.623047" xlink:href="#DejaVuSans-52"/>
      </g>
     </g>
    </g>
    <g id="xtick_8">
     <g id="line2d_15">
      <path clip-path="url(#pd8ba6c61d3)" d="M 410.448125 315.638625 
L 410.448125 49.526625 
" style="fill:none;stroke:#b0b0b0;stroke-linecap:square;stroke-width:0.8;"/>
     </g>
     <g id="line2d_16">
      <g>
       <use style="stroke:#000000;stroke-width:0.8;" x="410.448125" xlink:href="#ma00dc86cb7" y="315.638625"/>
      </g>
     </g>
     <g id="text_8">
      <!-- 16 -->
      <g transform="translate(404.085625 330.237062)scale(0.1 -0.1)">
       <use xlink:href="#DejaVuSans-49"/>
       <use x="63.623047" xlink:href="#DejaVuSans-54"/>
      </g>
     </g>
    </g>
    <g id="text_9">
     <!-- Time in Seconds -->
     <g transform="translate(190.911563 343.915187)scale(0.1 -0.1)">
      <defs>
       <path d="M -0.296875 72.90625 
L 61.375 72.90625 
L 61.375 64.59375 
L 35.5 64.59375 
L 35.5 0 
L 25.59375 0 
L 25.59375 64.59375 
L -0.296875 64.59375 
z
" id="DejaVuSans-84"/>
       <path d="M 9.421875 54.6875 
L 18.40625 54.6875 
L 18.40625 0 
L 9.421875 0 
z
M 9.421875 75.984375 
L 18.40625 75.984375 
L 18.40625 64.59375 
L 9.421875 64.59375 
z
" id="DejaVuSans-105"/>
       <path d="M 52 44.1875 
Q 55.375 50.25 60.0625 53.125 
Q 64.75 56 71.09375 56 
Q 79.640625 56 84.28125 50.015625 
Q 88.921875 44.046875 88.921875 33.015625 
L 88.921875 0 
L 79.890625 0 
L 79.890625 32.71875 
Q 79.890625 40.578125 77.09375 44.375 
Q 74.3125 48.1875 68.609375 48.1875 
Q 61.625 48.1875 57.5625 43.546875 
Q 53.515625 38.921875 53.515625 30.90625 
L 53.515625 0 
L 44.484375 0 
L 44.484375 32.71875 
Q 44.484375 40.625 41.703125 44.40625 
Q 38.921875 48.1875 33.109375 48.1875 
Q 26.21875 48.1875 22.15625 43.53125 
Q 18.109375 38.875 18.109375 30.90625 
L 18.109375 0 
L 9.078125 0 
L 9.078125 54.6875 
L 18.109375 54.6875 
L 18.109375 46.1875 
Q 21.1875 51.21875 25.484375 53.609375 
Q 29.78125 56 35.6875 56 
Q 41.65625 56 45.828125 52.96875 
Q 50 49.953125 52 44.1875 
z
" id="DejaVuSans-109"/>
       <path d="M 56.203125 29.59375 
L 56.203125 25.203125 
L 14.890625 25.203125 
Q 15.484375 15.921875 20.484375 11.0625 
Q 25.484375 6.203125 34.421875 6.203125 
Q 39.59375 6.203125 44.453125 7.46875 
Q 49.3125 8.734375 54.109375 11.28125 
L 54.109375 2.78125 
Q 49.265625 0.734375 44.1875 -0.34375 
Q 39.109375 -1.421875 33.890625 -1.421875 
Q 20.796875 -1.421875 13.15625 6.1875 
Q 5.515625 13.8125 5.515625 26.8125 
Q 5.515625 40.234375 12.765625 48.109375 
Q 20.015625 56 32.328125 56 
Q 43.359375 56 49.78125 48.890625 
Q 56.203125 41.796875 56.203125 29.59375 
z
M 47.21875 32.234375 
Q 47.125 39.59375 43.09375 43.984375 
Q 39.0625 48.390625 32.421875 48.390625 
Q 24.90625 48.390625 20.390625 44.140625 
Q 15.875 39.890625 15.1875 32.171875 
z
" id="DejaVuSans-101"/>
       <path id="DejaVuSans-32"/>
       <path d="M 54.890625 33.015625 
L 54.890625 0 
L 45.90625 0 
L 45.90625 32.71875 
Q 45.90625 40.484375 42.875 44.328125 
Q 39.84375 48.1875 33.796875 48.1875 
Q 26.515625 48.1875 22.3125 43.546875 
Q 18.109375 38.921875 18.109375 30.90625 
L 18.109375 0 
L 9.078125 0 
L 9.078125 54.6875 
L 18.109375 54.6875 
L 18.109375 46.1875 
Q 21.34375 51.125 25.703125 53.5625 
Q 30.078125 56 35.796875 56 
Q 45.21875 56 50.046875 50.171875 
Q 54.890625 44.34375 54.890625 33.015625 
z
" id="DejaVuSans-110"/>
       <path d="M 53.515625 70.515625 
L 53.515625 60.890625 
Q 47.90625 63.578125 42.921875 64.890625 
Q 37.9375 66.21875 33.296875 66.21875 
Q 25.25 66.21875 20.875 63.09375 
Q 16.5 59.96875 16.5 54.203125 
Q 16.5 49.359375 19.40625 46.890625 
Q 22.3125 44.4375 30.421875 42.921875 
L 36.375 41.703125 
Q 47.40625 39.59375 52.65625 34.296875 
Q 57.90625 29 57.90625 20.125 
Q 57.90625 9.515625 50.796875 4.046875 
Q 43.703125 -1.421875 29.984375 -1.421875 
Q 24.8125 -1.421875 18.96875 -0.25 
Q 13.140625 0.921875 6.890625 3.21875 
L 6.890625 13.375 
Q 12.890625 10.015625 18.65625 8.296875 
Q 24.421875 6.59375 29.984375 6.59375 
Q 38.421875 6.59375 43.015625 9.90625 
Q 47.609375 13.234375 47.609375 19.390625 
Q 47.609375 24.75 44.3125 27.78125 
Q 41.015625 30.8125 33.5 32.328125 
L 27.484375 33.5 
Q 16.453125 35.6875 11.515625 40.375 
Q 6.59375 45.0625 6.59375 53.421875 
Q 6.59375 63.09375 13.40625 68.65625 
Q 20.21875 74.21875 32.171875 74.21875 
Q 37.3125 74.21875 42.625 73.28125 
Q 47.953125 72.359375 53.515625 70.515625 
z
" id="DejaVuSans-83"/>
       <path d="M 48.78125 52.59375 
L 48.78125 44.1875 
Q 44.96875 46.296875 41.140625 47.34375 
Q 37.3125 48.390625 33.40625 48.390625 
Q 24.65625 48.390625 19.8125 42.84375 
Q 14.984375 37.3125 14.984375 27.296875 
Q 14.984375 17.28125 19.8125 11.734375 
Q 24.65625 6.203125 33.40625 6.203125 
Q 37.3125 6.203125 41.140625 7.25 
Q 44.96875 8.296875 48.78125 10.40625 
L 48.78125 2.09375 
Q 45.015625 0.34375 40.984375 -0.53125 
Q 36.96875 -1.421875 32.421875 -1.421875 
Q 20.0625 -1.421875 12.78125 6.34375 
Q 5.515625 14.109375 5.515625 27.296875 
Q 5.515625 40.671875 12.859375 48.328125 
Q 20.21875 56 33.015625 56 
Q 37.15625 56 41.109375 55.140625 
Q 45.0625 54.296875 48.78125 52.59375 
z
" id="DejaVuSans-99"/>
       <path d="M 30.609375 48.390625 
Q 23.390625 48.390625 19.1875 42.75 
Q 14.984375 37.109375 14.984375 27.296875 
Q 14.984375 17.484375 19.15625 11.84375 
Q 23.34375 6.203125 30.609375 6.203125 
Q 37.796875 6.203125 41.984375 11.859375 
Q 46.1875 17.53125 46.1875 27.296875 
Q 46.1875 37.015625 41.984375 42.703125 
Q 37.796875 48.390625 30.609375 48.390625 
z
M 30.609375 56 
Q 42.328125 56 49.015625 48.375 
Q 55.71875 40.765625 55.71875 27.296875 
Q 55.71875 13.875 49.015625 6.21875 
Q 42.328125 -1.421875 30.609375 -1.421875 
Q 18.84375 -1.421875 12.171875 6.21875 
Q 5.515625 13.875 5.515625 27.296875 
Q 5.515625 40.765625 12.171875 48.375 
Q 18.84375 56 30.609375 56 
z
" id="DejaVuSans-111"/>
       <path d="M 45.40625 46.390625 
L 45.40625 75.984375 
L 54.390625 75.984375 
L 54.390625 0 
L 45.40625 0 
L 45.40625 8.203125 
Q 42.578125 3.328125 38.25 0.953125 
Q 33.9375 -1.421875 27.875 -1.421875 
Q 17.96875 -1.421875 11.734375 6.484375 
Q 5.515625 14.40625 5.515625 27.296875 
Q 5.515625 40.1875 11.734375 48.09375 
Q 17.96875 56 27.875 56 
Q 33.9375 56 38.25 53.625 
Q 42.578125 51.265625 45.40625 46.390625 
z
M 14.796875 27.296875 
Q 14.796875 17.390625 18.875 11.75 
Q 22.953125 6.109375 30.078125 6.109375 
Q 37.203125 6.109375 41.296875 11.75 
Q 45.40625 17.390625 45.40625 27.296875 
Q 45.40625 37.203125 41.296875 42.84375 
Q 37.203125 48.484375 30.078125 48.484375 
Q 22.953125 48.484375 18.875 42.84375 
Q 14.796875 37.203125 14.796875 27.296875 
z
" id="DejaVuSans-100"/>
       <path d="M 44.28125 53.078125 
L 44.28125 44.578125 
Q 40.484375 46.53125 36.375 47.5 
Q 32.28125 48.484375 27.875 48.484375 
Q 21.1875 48.484375 17.84375 46.4375 
Q 14.5 44.390625 14.5 40.28125 
Q 14.5 37.15625 16.890625 35.375 
Q 19.28125 33.59375 26.515625 31.984375 
L 29.59375 31.296875 
Q 39.15625 29.25 43.1875 25.515625 
Q 47.21875 21.78125 47.21875 15.09375 
Q 47.21875 7.46875 41.1875 3.015625 
Q 35.15625 -1.421875 24.609375 -1.421875 
Q 20.21875 -1.421875 15.453125 -0.5625 
Q 10.6875 0.296875 5.421875 2 
L 5.421875 11.28125 
Q 10.40625 8.6875 15.234375 7.390625 
Q 20.0625 6.109375 24.8125 6.109375 
Q 31.15625 6.109375 34.5625 8.28125 
Q 37.984375 10.453125 37.984375 14.40625 
Q 37.984375 18.0625 35.515625 20.015625 
Q 33.0625 21.96875 24.703125 23.78125 
L 21.578125 24.515625 
Q 13.234375 26.265625 9.515625 29.90625 
Q 5.8125 33.546875 5.8125 39.890625 
Q 5.8125 47.609375 11.28125 51.796875 
Q 16.75 56 26.8125 56 
Q 31.78125 56 36.171875 55.265625 
Q 40.578125 54.546875 44.28125 53.078125 
z
" id="DejaVuSans-115"/>
      </defs>
      <use xlink:href="#DejaVuSans-84"/>
      <use x="57.958984" xlink:href="#DejaVuSans-105"/>
      <use x="85.742188" xlink:href="#DejaVuSans-109"/>
      <use x="183.154297" xlink:href="#DejaVuSans-101"/>
      <use x="244.677734" xlink:href="#DejaVuSans-32"/>
      <use x="276.464844" xlink:href="#DejaVuSans-105"/>
      <use x="304.248047" xlink:href="#DejaVuSans-110"/>
      <use x="367.626953" xlink:href="#DejaVuSans-32"/>
      <use x="399.414062" xlink:href="#DejaVuSans-83"/>
      <use x="462.890625" xlink:href="#DejaVuSans-101"/>
      <use x="524.414062" xlink:href="#DejaVuSans-99"/>
      <use x="579.394531" xlink:href="#DejaVuSans-111"/>
      <use x="640.576172" xlink:href="#DejaVuSans-110"/>
      <use x="703.955078" xlink:href="#DejaVuSans-100"/>
      <use x="767.431641" xlink:href="#DejaVuSans-115"/>
     </g>
    </g>
   </g>
   <g id="matplotlib.axis_2">
    <g id="ytick_1">
     <g id="line2d_17">
      <path clip-path="url(#pd8ba6c61d3)" d="M 53.328125 303.542625 
L 410.448125 303.542625 
" style="fill:none;stroke:#b0b0b0;stroke-linecap:square;stroke-width:0.8;"/>
     </g>
     <g id="line2d_18">
      <defs>
       <path d="M 0 0 
L -3.5 0 
" id="m274156fdcc" style="stroke:#000000;stroke-width:0.8;"/>
      </defs>
      <g>
       <use style="stroke:#000000;stroke-width:0.8;" x="53.328125" xlink:href="#m274156fdcc" y="303.542625"/>
      </g>
     </g>
     <g id="text_10">
      <!-- 0 -->
      <g transform="translate(39.965625 307.341844)scale(0.1 -0.1)">
       <use xlink:href="#DejaVuSans-48"/>
      </g>
     </g>
    </g>
    <g id="ytick_2">
     <g id="line2d_19">
      <path clip-path="url(#pd8ba6c61d3)" d="M 53.328125 253.351754 
L 410.448125 253.351754 
" style="fill:none;stroke:#b0b0b0;stroke-linecap:square;stroke-width:0.8;"/>
     </g>
     <g id="line2d_20">
      <g>
       <use style="stroke:#000000;stroke-width:0.8;" x="53.328125" xlink:href="#m274156fdcc" y="253.351754"/>
      </g>
     </g>
     <g id="text_11">
      <!-- 200 -->
      <g transform="translate(27.240625 257.150973)scale(0.1 -0.1)">
       <use xlink:href="#DejaVuSans-50"/>
       <use x="63.623047" xlink:href="#DejaVuSans-48"/>
       <use x="127.246094" xlink:href="#DejaVuSans-48"/>
      </g>
     </g>
    </g>
    <g id="ytick_3">
     <g id="line2d_21">
      <path clip-path="url(#pd8ba6c61d3)" d="M 53.328125 203.160882 
L 410.448125 203.160882 
" style="fill:none;stroke:#b0b0b0;stroke-linecap:square;stroke-width:0.8;"/>
     </g>
     <g id="line2d_22">
      <g>
       <use style="stroke:#000000;stroke-width:0.8;" x="53.328125" xlink:href="#m274156fdcc" y="203.160882"/>
      </g>
     </g>
     <g id="text_12">
      <!-- 400 -->
      <g transform="translate(27.240625 206.960101)scale(0.1 -0.1)">
       <use xlink:href="#DejaVuSans-52"/>
       <use x="63.623047" xlink:href="#DejaVuSans-48"/>
       <use x="127.246094" xlink:href="#DejaVuSans-48"/>
      </g>
     </g>
    </g>
    <g id="ytick_4">
     <g id="line2d_23">
      <path clip-path="url(#pd8ba6c61d3)" d="M 53.328125 152.970011 
L 410.448125 152.970011 
" style="fill:none;stroke:#b0b0b0;stroke-linecap:square;stroke-width:0.8;"/>
     </g>
     <g id="line2d_24">
      <g>
       <use style="stroke:#000000;stroke-width:0.8;" x="53.328125" xlink:href="#m274156fdcc" y="152.970011"/>
      </g>
     </g>
     <g id="text_13">
      <!-- 600 -->
      <g transform="translate(27.240625 156.76923)scale(0.1 -0.1)">
       <use xlink:href="#DejaVuSans-54"/>
       <use x="63.623047" xlink:href="#DejaVuSans-48"/>
       <use x="127.246094" xlink:href="#DejaVuSans-48"/>
      </g>
     </g>
    </g>
    <g id="ytick_5">
     <g id="line2d_25">
      <path clip-path="url(#pd8ba6c61d3)" d="M 53.328125 102.77914 
L 410.448125 102.77914 
" style="fill:none;stroke:#b0b0b0;stroke-linecap:square;stroke-width:0.8;"/>
     </g>
     <g id="line2d_26">
      <g>
       <use style="stroke:#000000;stroke-width:0.8;" x="53.328125" xlink:href="#m274156fdcc" y="102.77914"/>
      </g>
     </g>
     <g id="text_14">
      <!-- 800 -->
      <g transform="translate(27.240625 106.578358)scale(0.1 -0.1)">
       <use xlink:href="#DejaVuSans-56"/>
       <use x="63.623047" xlink:href="#DejaVuSans-48"/>
       <use x="127.246094" xlink:href="#DejaVuSans-48"/>
      </g>
     </g>
    </g>
    <g id="ytick_6">
     <g id="line2d_27">
      <path clip-path="url(#pd8ba6c61d3)" d="M 53.328125 52.588268 
L 410.448125 52.588268 
" style="fill:none;stroke:#b0b0b0;stroke-linecap:square;stroke-width:0.8;"/>
     </g>
     <g id="line2d_28">
      <g>
       <use style="stroke:#000000;stroke-width:0.8;" x="53.328125" xlink:href="#m274156fdcc" y="52.588268"/>
      </g>
     </g>
     <g id="text_15">
      <!-- 1000 -->
      <g transform="translate(20.878125 56.387487)scale(0.1 -0.1)">
       <use xlink:href="#DejaVuSans-49"/>
       <use x="63.623047" xlink:href="#DejaVuSans-48"/>
       <use x="127.246094" xlink:href="#DejaVuSans-48"/>
       <use x="190.869141" xlink:href="#DejaVuSans-48"/>
      </g>
     </g>
    </g>
    <g id="text_16">
     <!-- Latency in Milliseconds -->
     <g transform="translate(14.798438 240.390437)rotate(-90)scale(0.1 -0.1)">
      <defs>
       <path d="M 9.8125 72.90625 
L 19.671875 72.90625 
L 19.671875 8.296875 
L 55.171875 8.296875 
L 55.171875 0 
L 9.8125 0 
z
" id="DejaVuSans-76"/>
       <path d="M 34.28125 27.484375 
Q 23.390625 27.484375 19.1875 25 
Q 14.984375 22.515625 14.984375 16.5 
Q 14.984375 11.71875 18.140625 8.90625 
Q 21.296875 6.109375 26.703125 6.109375 
Q 34.1875 6.109375 38.703125 11.40625 
Q 43.21875 16.703125 43.21875 25.484375 
L 43.21875 27.484375 
z
M 52.203125 31.203125 
L 52.203125 0 
L 43.21875 0 
L 43.21875 8.296875 
Q 40.140625 3.328125 35.546875 0.953125 
Q 30.953125 -1.421875 24.3125 -1.421875 
Q 15.921875 -1.421875 10.953125 3.296875 
Q 6 8.015625 6 15.921875 
Q 6 25.140625 12.171875 29.828125 
Q 18.359375 34.515625 30.609375 34.515625 
L 43.21875 34.515625 
L 43.21875 35.40625 
Q 43.21875 41.609375 39.140625 45 
Q 35.0625 48.390625 27.6875 48.390625 
Q 23 48.390625 18.546875 47.265625 
Q 14.109375 46.140625 10.015625 43.890625 
L 10.015625 52.203125 
Q 14.9375 54.109375 19.578125 55.046875 
Q 24.21875 56 28.609375 56 
Q 40.484375 56 46.34375 49.84375 
Q 52.203125 43.703125 52.203125 31.203125 
z
" id="DejaVuSans-97"/>
       <path d="M 18.3125 70.21875 
L 18.3125 54.6875 
L 36.8125 54.6875 
L 36.8125 47.703125 
L 18.3125 47.703125 
L 18.3125 18.015625 
Q 18.3125 11.328125 20.140625 9.421875 
Q 21.96875 7.515625 27.59375 7.515625 
L 36.8125 7.515625 
L 36.8125 0 
L 27.59375 0 
Q 17.1875 0 13.234375 3.875 
Q 9.28125 7.765625 9.28125 18.015625 
L 9.28125 47.703125 
L 2.6875 47.703125 
L 2.6875 54.6875 
L 9.28125 54.6875 
L 9.28125 70.21875 
z
" id="DejaVuSans-116"/>
       <path d="M 32.171875 -5.078125 
Q 28.375 -14.84375 24.75 -17.8125 
Q 21.140625 -20.796875 15.09375 -20.796875 
L 7.90625 -20.796875 
L 7.90625 -13.28125 
L 13.1875 -13.28125 
Q 16.890625 -13.28125 18.9375 -11.515625 
Q 21 -9.765625 23.484375 -3.21875 
L 25.09375 0.875 
L 2.984375 54.6875 
L 12.5 54.6875 
L 29.59375 11.921875 
L 46.6875 54.6875 
L 56.203125 54.6875 
z
" id="DejaVuSans-121"/>
       <path d="M 9.8125 72.90625 
L 24.515625 72.90625 
L 43.109375 23.296875 
L 61.8125 72.90625 
L 76.515625 72.90625 
L 76.515625 0 
L 66.890625 0 
L 66.890625 64.015625 
L 48.09375 14.015625 
L 38.1875 14.015625 
L 19.390625 64.015625 
L 19.390625 0 
L 9.8125 0 
z
" id="DejaVuSans-77"/>
       <path d="M 9.421875 75.984375 
L 18.40625 75.984375 
L 18.40625 0 
L 9.421875 0 
z
" id="DejaVuSans-108"/>
      </defs>
      <use xlink:href="#DejaVuSans-76"/>
      <use x="55.712891" xlink:href="#DejaVuSans-97"/>
      <use x="116.992188" xlink:href="#DejaVuSans-116"/>
      <use x="156.201172" xlink:href="#DejaVuSans-101"/>
      <use x="217.724609" xlink:href="#DejaVuSans-110"/>
      <use x="281.103516" xlink:href="#DejaVuSans-99"/>
      <use x="336.083984" xlink:href="#DejaVuSans-121"/>
      <use x="395.263672" xlink:href="#DejaVuSans-32"/>
      <use x="427.050781" xlink:href="#DejaVuSans-105"/>
      <use x="454.833984" xlink:href="#DejaVuSans-110"/>
      <use x="518.212891" xlink:href="#DejaVuSans-32"/>
      <use x="550" xlink:href="#DejaVuSans-77"/>
      <use x="636.279297" xlink:href="#DejaVuSans-105"/>
      <use x="664.0625" xlink:href="#DejaVuSans-108"/>
      <use x="691.845703" xlink:href="#DejaVuSans-108"/>
      <use x="719.628906" xlink:href="#DejaVuSans-105"/>
      <use x="747.412109" xlink:href="#DejaVuSans-115"/>
      <use x="799.511719" xlink:href="#DejaVuSans-101"/>
      <use x="861.035156" xlink:href="#DejaVuSans-99"/>
      <use x="916.015625" xlink:href="#DejaVuSans-111"/>
      <use x="977.197266" xlink:href="#DejaVuSans-110"/>
      <use x="1040.576172" xlink:href="#DejaVuSans-100"/>
      <use x="1104.052734" xlink:href="#DejaVuSans-115"/>
     </g>
    </g>
   </g>
   <g id="line2d_29">
    <path clip-path="url(#pd8ba6c61d3)" d="M 29.520125 299.359216 
L 53.328125 300.528663 
L 77.136125 300.950267 
L 100.944125 299.828501 
L 124.752125 301.705388 
L 148.560125 297.898662 
L 172.368125 300.287747 
L 196.176125 299.964016 
L 219.984125 299.6704 
L 243.792125 296.927468 
L 267.600125 290.164249 
L 291.408125 299.853596 
L 315.216125 300.819771 
L 339.024125 298.719283 
L 362.832125 298.330303 
" style="fill:none;stroke:#ff0000;stroke-linecap:square;stroke-opacity:0.2;stroke-width:1.5;"/>
   </g>
   <g id="line2d_30">
    <path clip-path="url(#pd8ba6c61d3)" d="M 29.520125 303.36106 
L 53.328125 303.439759 
L 77.136125 303.4308 
L 100.944125 303.390045 
L 124.752125 303.479987 
L 148.560125 303.239974 
L 172.368125 303.459434 
L 196.176125 303.299149 
L 219.984125 303.364925 
L 243.792125 303.235708 
L 267.600125 302.24494 
L 291.408125 303.364096 
L 315.216125 303.44405 
L 339.024125 303.307105 
L 362.832125 303.249009 
" style="fill:none;stroke:#800080;stroke-linecap:square;stroke-opacity:0.2;stroke-width:1.5;"/>
   </g>
   <g id="line2d_31">
    <path clip-path="url(#pd8ba6c61d3)" d="M 29.520125 275.511024 
L 53.328125 290.726386 
L 77.136125 288.159123 
L 100.944125 300.975362 
L 124.752125 295.479462 
L 148.560125 297.198499 
L 172.368125 300.98791 
L 196.176125 298.538595 
L 219.984125 301.070474 
L 243.792125 300.950267 
L 267.600125 300.676727 
L 291.408125 301.094064 
L 315.216125 300.952776 
L 339.024125 301.437871 
L 362.832125 300.473454 
" style="fill:none;stroke:#ff0000;stroke-linecap:square;stroke-opacity:0.2;stroke-width:1.5;"/>
   </g>
   <g id="line2d_32">
    <path clip-path="url(#pd8ba6c61d3)" d="M 29.520125 300.839847 
L 53.328125 302.674323 
L 77.136125 301.62684 
L 100.944125 303.403822 
L 124.752125 302.808835 
L 148.560125 303.329891 
L 172.368125 303.449747 
L 196.176125 303.220149 
L 219.984125 303.451679 
L 243.792125 303.429219 
L 267.600125 303.296364 
L 291.408125 303.46626 
L 315.216125 303.393885 
L 339.024125 303.474868 
L 362.832125 303.449295 
" style="fill:none;stroke:#800080;stroke-linecap:square;stroke-opacity:0.2;stroke-width:1.5;"/>
   </g>
   <g id="line2d_33">
    <path clip-path="url(#pd8ba6c61d3)" d="M 29.520125 294.601122 
L 53.328125 296.704119 
L 77.136125 295.283717 
L 100.944125 302.004024 
L 124.752125 295.76304 
L 148.560125 301.29558 
L 172.368125 296.495827 
L 196.176125 297.983986 
L 219.984125 298.606353 
L 243.792125 300.917643 
L 267.600125 300.302805 
L 291.408125 300.9854 
L 315.216125 295.210941 
L 339.024125 298.375475 
L 362.832125 303.408942 
" style="fill:none;stroke:#ff0000;stroke-linecap:square;stroke-opacity:0.2;stroke-width:1.5;"/>
   </g>
   <g id="line2d_34">
    <path clip-path="url(#pd8ba6c61d3)" d="M 29.520125 302.964426 
L 53.328125 302.89692 
L 77.136125 302.983499 
L 100.944125 303.483751 
L 124.752125 302.833428 
L 148.560125 303.468744 
L 172.368125 302.825398 
L 196.176125 303.283138 
L 219.984125 303.258545 
L 243.792125 303.409745 
L 267.600125 303.363118 
L 291.408125 303.41105 
L 315.216125 302.824143 
L 339.024125 303.304997 
L 362.832125 303.542625 
" style="fill:none;stroke:#800080;stroke-linecap:square;stroke-opacity:0.2;stroke-width:1.5;"/>
   </g>
   <g id="line2d_35">
    <path clip-path="url(#pd8ba6c61d3)" d="M 29.520125 301.828356 
L 53.328125 301.703381 
L 77.136125 302.042922 
L 100.944125 300.777108 
L 124.752125 287.448922 
L 148.560125 299.635266 
L 172.368125 300.927681 
L 196.176125 298.694187 
L 219.984125 298.084368 
L 243.792125 298.122011 
L 267.600125 293.40156 
L 291.408125 298.132049 
L 315.216125 293.133039 
L 339.024125 302.290112 
L 362.832125 303.423623 
" style="fill:none;stroke:#ff0000;stroke-linecap:square;stroke-opacity:0.2;stroke-width:1.5;"/>
   </g>
   <g id="line2d_36">
    <path clip-path="url(#pd8ba6c61d3)" d="M 29.520125 303.47936 
L 53.328125 303.419231 
L 77.136125 303.486487 
L 100.944125 303.348462 
L 124.752125 301.845672 
L 148.560125 303.329766 
L 172.368125 303.448342 
L 196.176125 303.39805 
L 219.984125 303.240978 
L 243.792125 303.270591 
L 267.600125 302.725769 
L 291.408125 303.266826 
L 315.216125 302.531279 
L 339.024125 303.490577 
L 362.832125 303.542623 
" style="fill:none;stroke:#800080;stroke-linecap:square;stroke-opacity:0.2;stroke-width:1.5;"/>
   </g>
   <g id="line2d_37">
    <path clip-path="url(#pd8ba6c61d3)" d="M 77.136125 297.421849 
L 100.944125 283.938071 
L 124.752125 301.850942 
L 148.560125 299.770781 
L 172.368125 299.6704 
L 196.176125 301.107866 
M 243.792125 61.622625 
L 267.600125 302.56566 
L 291.408125 296.581151 
L 315.216125 298.797078 
L 339.024125 297.243671 
L 362.832125 302.005279 
" style="fill:none;stroke:#ff0000;stroke-linecap:square;stroke-opacity:0.2;stroke-width:1.5;"/>
   </g>
   <g id="line2d_38">
    <path clip-path="url(#pd8ba6c61d3)" d="M 77.136125 303.255534 
L 100.944125 301.371368 
L 124.752125 303.481894 
L 148.560125 303.384675 
L 172.368125 303.276614 
L 196.176125 303.441767 
M 243.792125 207.552584 
L 267.600125 303.518315 
L 291.408125 303.04423 
L 315.216125 303.309715 
L 339.024125 303.228179 
L 362.832125 303.473487 
" style="fill:none;stroke:#800080;stroke-linecap:square;stroke-opacity:0.2;stroke-width:1.5;"/>
   </g>
   <g id="line2d_39">
    <path clip-path="url(#pd8ba6c61d3)" d="M 29.520125 299.248796 
L 53.328125 302.046435 
L 77.136125 301.670255 
L 100.944125 299.825991 
L 124.752125 296.031561 
L 148.560125 300.598931 
L 172.368125 296.950054 
L 196.176125 291.521912 
L 219.984125 301.327451 
L 243.792125 301.100588 
L 267.600125 298.069311 
L 291.408125 298.839741 
L 315.216125 287.868016 
L 339.024125 290.455356 
L 362.832125 293.73031 
" style="fill:none;stroke:#ff0000;stroke-linecap:square;stroke-opacity:0.2;stroke-width:1.5;"/>
   </g>
   <g id="line2d_40">
    <path clip-path="url(#pd8ba6c61d3)" d="M 29.520125 303.339026 
L 53.328125 303.485734 
L 77.136125 303.476649 
L 100.944125 303.361637 
L 124.752125 303.019385 
L 148.560125 303.385578 
L 172.368125 303.237967 
L 196.176125 302.174924 
L 219.984125 303.47281 
L 243.792125 303.466661 
L 267.600125 303.348035 
L 291.408125 303.250263 
L 315.216125 301.608771 
L 339.024125 302.08458 
L 362.832125 303.037956 
" style="fill:none;stroke:#800080;stroke-linecap:square;stroke-opacity:0.2;stroke-width:1.5;"/>
   </g>
   <g id="line2d_41">
    <path clip-path="url(#pd8ba6c61d3)" d="M 29.520125 296.297573 
L 53.328125 299.773291 
L 77.136125 301.460708 
L 100.944125 295.951256 
L 124.752125 297.479568 
L 148.560125 296.337726 
L 172.368125 296.046619 
L 196.176125 298.480876 
L 219.984125 300.749503 
L 243.792125 300.127136 
L 267.600125 298.362927 
L 291.408125 301.015515 
L 315.216125 299.11579 
L 339.024125 293.087867 
L 362.832125 298.006572 
" style="fill:none;stroke:#ff0000;stroke-linecap:square;stroke-opacity:0.2;stroke-width:1.5;"/>
   </g>
   <g id="line2d_42">
    <path clip-path="url(#pd8ba6c61d3)" d="M 29.520125 303.032184 
L 53.328125 303.375465 
L 77.136125 303.457401 
L 100.944125 302.579462 
L 124.752125 303.027165 
L 148.560125 303.013614 
L 172.368125 302.839953 
L 196.176125 303.254028 
L 219.984125 303.464855 
L 243.792125 303.366355 
L 267.600125 303.22316 
L 291.408125 303.41376 
L 315.216125 303.351448 
L 339.024125 302.270036 
L 362.832125 303.175228 
" style="fill:none;stroke:#800080;stroke-linecap:square;stroke-opacity:0.2;stroke-width:1.5;"/>
   </g>
   <g id="line2d_43">
    <path clip-path="url(#pd8ba6c61d3)" d="M 29.520125 297.896152 
L 53.328125 300.260142 
L 77.136125 301.733244 
L 100.944125 299.718081 
L 124.752125 299.680438 
L 148.560125 300.837337 
L 172.368125 292.02633 
L 196.176125 302.037401 
L 219.984125 295.353985 
L 243.792125 298.736849 
L 267.600125 301.194947 
L 291.408125 300.044322 
L 315.216125 295.680225 
L 339.024125 300.209951 
L 362.832125 302.953886 
" style="fill:none;stroke:#ff0000;stroke-linecap:square;stroke-opacity:0.2;stroke-width:1.5;"/>
   </g>
   <g id="line2d_44">
    <path clip-path="url(#pd8ba6c61d3)" d="M 29.520125 303.164688 
L 53.328125 303.38076 
L 77.136125 303.478431 
L 100.944125 303.358701 
L 124.752125 303.394813 
L 148.560125 303.407411 
L 172.368125 302.268028 
L 196.176125 303.483124 
L 219.984125 302.629151 
L 243.792125 303.105965 
L 267.600125 303.469823 
L 291.408125 303.372453 
L 315.216125 303.072839 
L 339.024125 303.423472 
L 362.832125 303.528163 
" style="fill:none;stroke:#800080;stroke-linecap:square;stroke-opacity:0.2;stroke-width:1.5;"/>
   </g>
   <g id="line2d_45">
    <path clip-path="url(#pd8ba6c61d3)" d="M 29.520125 284.944398 
L 53.328125 301.752317 
L 77.136125 300.285238 
L 100.944125 300.93019 
L 124.752125 298.965218 
L 148.560125 302.008541 
L 172.368125 300.917643 
L 196.176125 299.836029 
L 219.984125 296.47826 
L 243.792125 297.512192 
L 267.600125 299.306516 
L 291.408125 300.897566 
L 315.216125 300.222499 
L 339.024125 298.192278 
L 362.832125 300.295276 
" style="fill:none;stroke:#ff0000;stroke-linecap:square;stroke-opacity:0.2;stroke-width:1.5;"/>
   </g>
   <g id="line2d_46">
    <path clip-path="url(#pd8ba6c61d3)" d="M 29.520125 301.54528 
L 53.328125 303.461291 
L 77.136125 303.419808 
L 100.944125 303.462646 
L 124.752125 303.277868 
L 148.560125 303.503175 
L 172.368125 303.446259 
L 196.176125 303.433084 
L 219.984125 302.967438 
L 243.792125 302.995545 
L 267.600125 303.307506 
L 291.408125 303.408842 
L 315.216125 303.37027 
L 339.024125 303.231693 
L 362.832125 303.451981 
" style="fill:none;stroke:#800080;stroke-linecap:square;stroke-opacity:0.2;stroke-width:1.5;"/>
   </g>
   <g id="line2d_47">
    <path clip-path="url(#pd8ba6c61d3)" d="M 29.520125 300.972853 
L 53.328125 302.316713 
L 77.136125 300.257633 
L 100.944125 300.363034 
L 124.752125 298.904989 
L 148.560125 300.295276 
L 172.368125 290.093981 
L 196.176125 300.267671 
L 219.984125 295.494519 
L 243.792125 301.695099 
L 267.600125 289.205603 
L 291.408125 286.098788 
L 315.216125 294.217161 
L 339.024125 299.015409 
L 362.832125 288.849248 
" style="fill:none;stroke:#ff0000;stroke-linecap:square;stroke-opacity:0.2;stroke-width:1.5;"/>
   </g>
   <g id="line2d_48">
    <path clip-path="url(#pd8ba6c61d3)" d="M 29.520125 303.420436 
L 53.328125 303.492108 
L 77.136125 303.380308 
L 100.944125 303.440939 
L 124.752125 303.385151 
L 148.560125 303.421891 
L 172.368125 301.608018 
L 196.176125 303.420185 
L 219.984125 302.961415 
L 243.792125 303.495697 
L 267.600125 301.643654 
L 291.408125 301.582923 
L 315.216125 302.989271 
L 339.024125 303.37027 
L 362.832125 302.431148 
" style="fill:none;stroke:#800080;stroke-linecap:square;stroke-opacity:0.2;stroke-width:1.5;"/>
   </g>
   <g id="line2d_49">
    <path clip-path="url(#pd8ba6c61d3)" d="M 77.136125 298.926496 
L 100.944125 298.431162 
L 124.752125 297.330953 
L 148.560125 299.58766 
L 172.368125 297.440419 
L 196.176125 298.843254 
M 243.792125 275.771188 
L 267.600125 297.32503 
L 291.408125 298.354219 
L 315.216125 296.60173 
L 339.024125 297.902727 
L 362.832125 299.147689 
" style="fill:none;stroke:#ff0000;stroke-linecap:square;stroke-width:1.5;"/>
   </g>
   <g id="line2d_50">
    <path clip-path="url(#pd8ba6c61d3)" d="M 0 0 
" style="fill:none;stroke:#ff0000;stroke-dasharray:5.55,2.4;stroke-dashoffset:0;stroke-width:1.5;"/>
   </g>
   <g id="line2d_51">
    <path clip-path="url(#pd8ba6c61d3)" d="M 77.136125 303.199576 
L 100.944125 303.120083 
L 124.752125 303.05542 
L 148.560125 303.348472 
L 172.368125 302.985976 
L 196.176125 303.24076 
M 243.792125 293.732807 
L 267.600125 303.014068 
L 291.408125 303.15807 
L 315.216125 302.989567 
L 339.024125 303.118578 
L 362.832125 303.288152 
" style="fill:none;stroke:#800080;stroke-linecap:square;stroke-width:1.5;"/>
   </g>
   <g id="line2d_52">
    <path clip-path="url(#pd8ba6c61d3)" d="M 0 0 
" style="fill:none;stroke:#800080;stroke-dasharray:5.55,2.4;stroke-dashoffset:0;stroke-width:1.5;"/>
   </g>
   <g id="patch_3">
    <path d="M 53.328125 315.638625 
L 53.328125 49.526625 
" style="fill:none;stroke:#000000;stroke-linecap:square;stroke-linejoin:miter;stroke-width:0.8;"/>
   </g>
   <g id="patch_4">
    <path d="M 410.448125 315.638625 
L 410.448125 49.526625 
" style="fill:none;stroke:#000000;stroke-linecap:square;stroke-linejoin:miter;stroke-width:0.8;"/>
   </g>
   <g id="patch_5">
    <path d="M 53.328125 315.638625 
L 410.448125 315.638625 
" style="fill:none;stroke:#000000;stroke-linecap:square;stroke-linejoin:miter;stroke-width:0.8;"/>
   </g>
   <g id="patch_6">
    <path d="M 53.328125 49.526625 
L 410.448125 49.526625 
" style="fill:none;stroke:#000000;stroke-linecap:square;stroke-linejoin:miter;stroke-width:0.8;"/>
   </g>
   <g id="text_17">
    <!-- Array1k@30Hz 1 Pub to 1 Sub, multi-processes, single machine -->
    <g transform="translate(40.95125 16.318125)scale(0.12 -0.12)">
     <defs>
      <path d="M 34.1875 63.1875 
L 20.796875 26.90625 
L 47.609375 26.90625 
z
M 28.609375 72.90625 
L 39.796875 72.90625 
L 67.578125 0 
L 57.328125 0 
L 50.6875 18.703125 
L 17.828125 18.703125 
L 11.1875 0 
L 0.78125 0 
z
" id="DejaVuSans-65"/>
      <path d="M 41.109375 46.296875 
Q 39.59375 47.171875 37.8125 47.578125 
Q 36.03125 48 33.890625 48 
Q 26.265625 48 22.1875 43.046875 
Q 18.109375 38.09375 18.109375 28.8125 
L 18.109375 0 
L 9.078125 0 
L 9.078125 54.6875 
L 18.109375 54.6875 
L 18.109375 46.1875 
Q 20.953125 51.171875 25.484375 53.578125 
Q 30.03125 56 36.53125 56 
Q 37.453125 56 38.578125 55.875 
Q 39.703125 55.765625 41.0625 55.515625 
z
" id="DejaVuSans-114"/>
      <path d="M 9.078125 75.984375 
L 18.109375 75.984375 
L 18.109375 31.109375 
L 44.921875 54.6875 
L 56.390625 54.6875 
L 27.390625 29.109375 
L 57.625 0 
L 45.90625 0 
L 18.109375 26.703125 
L 18.109375 0 
L 9.078125 0 
z
" id="DejaVuSans-107"/>
      <path d="M 37.203125 26.21875 
Q 37.203125 19.234375 40.671875 15.25 
Q 44.140625 11.28125 50.203125 11.28125 
Q 56.203125 11.28125 59.640625 15.28125 
Q 63.09375 19.28125 63.09375 26.21875 
Q 63.09375 33.0625 59.578125 37.078125 
Q 56.0625 41.109375 50.09375 41.109375 
Q 44.1875 41.109375 40.6875 37.109375 
Q 37.203125 33.109375 37.203125 26.21875 
z
M 63.8125 11.625 
Q 60.890625 7.859375 57.109375 6.078125 
Q 53.328125 4.296875 48.296875 4.296875 
Q 39.890625 4.296875 34.640625 10.375 
Q 29.390625 16.453125 29.390625 26.21875 
Q 29.390625 35.984375 34.65625 42.078125 
Q 39.9375 48.1875 48.296875 48.1875 
Q 53.328125 48.1875 57.125 46.359375 
Q 60.9375 44.53125 63.8125 40.828125 
L 63.8125 47.21875 
L 70.796875 47.21875 
L 70.796875 11.28125 
Q 77.9375 12.359375 81.953125 17.796875 
Q 85.984375 23.25 85.984375 31.890625 
Q 85.984375 37.109375 84.4375 41.703125 
Q 82.90625 46.296875 79.78125 50.203125 
Q 74.703125 56.59375 67.40625 59.984375 
Q 60.109375 63.375 51.515625 63.375 
Q 45.515625 63.375 39.984375 61.78125 
Q 34.46875 60.203125 29.78125 57.078125 
Q 22.125 52.09375 17.796875 44.015625 
Q 13.484375 35.9375 13.484375 26.515625 
Q 13.484375 18.75 16.28125 11.953125 
Q 19.09375 5.171875 24.421875 0 
Q 29.546875 -5.078125 36.28125 -7.734375 
Q 43.015625 -10.40625 50.6875 -10.40625 
Q 56.984375 -10.40625 63.0625 -8.28125 
Q 69.140625 -6.15625 74.21875 -2.203125 
L 78.609375 -7.625 
Q 72.515625 -12.359375 65.3125 -14.875 
Q 58.109375 -17.390625 50.6875 -17.390625 
Q 41.65625 -17.390625 33.640625 -14.1875 
Q 25.640625 -10.984375 19.390625 -4.890625 
Q 13.140625 1.21875 9.859375 9.25 
Q 6.59375 17.28125 6.59375 26.515625 
Q 6.59375 35.40625 9.90625 43.453125 
Q 13.234375 51.515625 19.390625 57.625 
Q 25.6875 63.8125 33.9375 67.109375 
Q 42.1875 70.40625 51.421875 70.40625 
Q 61.765625 70.40625 70.625 66.15625 
Q 79.5 61.921875 85.5 54.109375 
Q 89.15625 49.3125 91.078125 43.703125 
Q 93.015625 38.09375 93.015625 32.078125 
Q 93.015625 19.234375 85.25 11.8125 
Q 77.484375 4.390625 63.8125 4.109375 
z
" id="DejaVuSans-64"/>
      <path d="M 40.578125 39.3125 
Q 47.65625 37.796875 51.625 33 
Q 55.609375 28.21875 55.609375 21.1875 
Q 55.609375 10.40625 48.1875 4.484375 
Q 40.765625 -1.421875 27.09375 -1.421875 
Q 22.515625 -1.421875 17.65625 -0.515625 
Q 12.796875 0.390625 7.625 2.203125 
L 7.625 11.71875 
Q 11.71875 9.328125 16.59375 8.109375 
Q 21.484375 6.890625 26.8125 6.890625 
Q 36.078125 6.890625 40.9375 10.546875 
Q 45.796875 14.203125 45.796875 21.1875 
Q 45.796875 27.640625 41.28125 31.265625 
Q 36.765625 34.90625 28.71875 34.90625 
L 20.21875 34.90625 
L 20.21875 43.015625 
L 29.109375 43.015625 
Q 36.375 43.015625 40.234375 45.921875 
Q 44.09375 48.828125 44.09375 54.296875 
Q 44.09375 59.90625 40.109375 62.90625 
Q 36.140625 65.921875 28.71875 65.921875 
Q 24.65625 65.921875 20.015625 65.03125 
Q 15.375 64.15625 9.8125 62.3125 
L 9.8125 71.09375 
Q 15.4375 72.65625 20.34375 73.4375 
Q 25.25 74.21875 29.59375 74.21875 
Q 40.828125 74.21875 47.359375 69.109375 
Q 53.90625 64.015625 53.90625 55.328125 
Q 53.90625 49.265625 50.4375 45.09375 
Q 46.96875 40.921875 40.578125 39.3125 
z
" id="DejaVuSans-51"/>
      <path d="M 9.8125 72.90625 
L 19.671875 72.90625 
L 19.671875 43.015625 
L 55.515625 43.015625 
L 55.515625 72.90625 
L 65.375 72.90625 
L 65.375 0 
L 55.515625 0 
L 55.515625 34.71875 
L 19.671875 34.71875 
L 19.671875 0 
L 9.8125 0 
z
" id="DejaVuSans-72"/>
      <path d="M 5.515625 54.6875 
L 48.1875 54.6875 
L 48.1875 46.484375 
L 14.40625 7.171875 
L 48.1875 7.171875 
L 48.1875 0 
L 4.296875 0 
L 4.296875 8.203125 
L 38.09375 47.515625 
L 5.515625 47.515625 
z
" id="DejaVuSans-122"/>
      <path d="M 19.671875 64.796875 
L 19.671875 37.40625 
L 32.078125 37.40625 
Q 38.96875 37.40625 42.71875 40.96875 
Q 46.484375 44.53125 46.484375 51.125 
Q 46.484375 57.671875 42.71875 61.234375 
Q 38.96875 64.796875 32.078125 64.796875 
z
M 9.8125 72.90625 
L 32.078125 72.90625 
Q 44.34375 72.90625 50.609375 67.359375 
Q 56.890625 61.8125 56.890625 51.125 
Q 56.890625 40.328125 50.609375 34.8125 
Q 44.34375 29.296875 32.078125 29.296875 
L 19.671875 29.296875 
L 19.671875 0 
L 9.8125 0 
z
" id="DejaVuSans-80"/>
      <path d="M 8.5 21.578125 
L 8.5 54.6875 
L 17.484375 54.6875 
L 17.484375 21.921875 
Q 17.484375 14.15625 20.5 10.265625 
Q 23.53125 6.390625 29.59375 6.390625 
Q 36.859375 6.390625 41.078125 11.03125 
Q 45.3125 15.671875 45.3125 23.6875 
L 45.3125 54.6875 
L 54.296875 54.6875 
L 54.296875 0 
L 45.3125 0 
L 45.3125 8.40625 
Q 42.046875 3.421875 37.71875 1 
Q 33.40625 -1.421875 27.6875 -1.421875 
Q 18.265625 -1.421875 13.375 4.4375 
Q 8.5 10.296875 8.5 21.578125 
z
M 31.109375 56 
z
" id="DejaVuSans-117"/>
      <path d="M 48.6875 27.296875 
Q 48.6875 37.203125 44.609375 42.84375 
Q 40.53125 48.484375 33.40625 48.484375 
Q 26.265625 48.484375 22.1875 42.84375 
Q 18.109375 37.203125 18.109375 27.296875 
Q 18.109375 17.390625 22.1875 11.75 
Q 26.265625 6.109375 33.40625 6.109375 
Q 40.53125 6.109375 44.609375 11.75 
Q 48.6875 17.390625 48.6875 27.296875 
z
M 18.109375 46.390625 
Q 20.953125 51.265625 25.265625 53.625 
Q 29.59375 56 35.59375 56 
Q 45.5625 56 51.78125 48.09375 
Q 58.015625 40.1875 58.015625 27.296875 
Q 58.015625 14.40625 51.78125 6.484375 
Q 45.5625 -1.421875 35.59375 -1.421875 
Q 29.59375 -1.421875 25.265625 0.953125 
Q 20.953125 3.328125 18.109375 8.203125 
L 18.109375 0 
L 9.078125 0 
L 9.078125 75.984375 
L 18.109375 75.984375 
z
" id="DejaVuSans-98"/>
      <path d="M 11.71875 12.40625 
L 22.015625 12.40625 
L 22.015625 4 
L 14.015625 -11.625 
L 7.71875 -11.625 
L 11.71875 4 
z
" id="DejaVuSans-44"/>
      <path d="M 4.890625 31.390625 
L 31.203125 31.390625 
L 31.203125 23.390625 
L 4.890625 23.390625 
z
" id="DejaVuSans-45"/>
      <path d="M 18.109375 8.203125 
L 18.109375 -20.796875 
L 9.078125 -20.796875 
L 9.078125 54.6875 
L 18.109375 54.6875 
L 18.109375 46.390625 
Q 20.953125 51.265625 25.265625 53.625 
Q 29.59375 56 35.59375 56 
Q 45.5625 56 51.78125 48.09375 
Q 58.015625 40.1875 58.015625 27.296875 
Q 58.015625 14.40625 51.78125 6.484375 
Q 45.5625 -1.421875 35.59375 -1.421875 
Q 29.59375 -1.421875 25.265625 0.953125 
Q 20.953125 3.328125 18.109375 8.203125 
z
M 48.6875 27.296875 
Q 48.6875 37.203125 44.609375 42.84375 
Q 40.53125 48.484375 33.40625 48.484375 
Q 26.265625 48.484375 22.1875 42.84375 
Q 18.109375 37.203125 18.109375 27.296875 
Q 18.109375 17.390625 22.1875 11.75 
Q 26.265625 6.109375 33.40625 6.109375 
Q 40.53125 6.109375 44.609375 11.75 
Q 48.6875 17.390625 48.6875 27.296875 
z
" id="DejaVuSans-112"/>
      <path d="M 45.40625 27.984375 
Q 45.40625 37.75 41.375 43.109375 
Q 37.359375 48.484375 30.078125 48.484375 
Q 22.859375 48.484375 18.828125 43.109375 
Q 14.796875 37.75 14.796875 27.984375 
Q 14.796875 18.265625 18.828125 12.890625 
Q 22.859375 7.515625 30.078125 7.515625 
Q 37.359375 7.515625 41.375 12.890625 
Q 45.40625 18.265625 45.40625 27.984375 
z
M 54.390625 6.78125 
Q 54.390625 -7.171875 48.1875 -13.984375 
Q 42 -20.796875 29.203125 -20.796875 
Q 24.46875 -20.796875 20.265625 -20.09375 
Q 16.0625 -19.390625 12.109375 -17.921875 
L 12.109375 -9.1875 
Q 16.0625 -11.328125 19.921875 -12.34375 
Q 23.78125 -13.375 27.78125 -13.375 
Q 36.625 -13.375 41.015625 -8.765625 
Q 45.40625 -4.15625 45.40625 5.171875 
L 45.40625 9.625 
Q 42.625 4.78125 38.28125 2.390625 
Q 33.9375 0 27.875 0 
Q 17.828125 0 11.671875 7.65625 
Q 5.515625 15.328125 5.515625 27.984375 
Q 5.515625 40.671875 11.671875 48.328125 
Q 17.828125 56 27.875 56 
Q 33.9375 56 38.28125 53.609375 
Q 42.625 51.21875 45.40625 46.390625 
L 45.40625 54.6875 
L 54.390625 54.6875 
z
" id="DejaVuSans-103"/>
      <path d="M 54.890625 33.015625 
L 54.890625 0 
L 45.90625 0 
L 45.90625 32.71875 
Q 45.90625 40.484375 42.875 44.328125 
Q 39.84375 48.1875 33.796875 48.1875 
Q 26.515625 48.1875 22.3125 43.546875 
Q 18.109375 38.921875 18.109375 30.90625 
L 18.109375 0 
L 9.078125 0 
L 9.078125 75.984375 
L 18.109375 75.984375 
L 18.109375 46.1875 
Q 21.34375 51.125 25.703125 53.5625 
Q 30.078125 56 35.796875 56 
Q 45.21875 56 50.046875 50.171875 
Q 54.890625 44.34375 54.890625 33.015625 
z
" id="DejaVuSans-104"/>
     </defs>
     <use xlink:href="#DejaVuSans-65"/>
     <use x="68.408203" xlink:href="#DejaVuSans-114"/>
     <use x="107.771484" xlink:href="#DejaVuSans-114"/>
     <use x="148.884766" xlink:href="#DejaVuSans-97"/>
     <use x="210.164062" xlink:href="#DejaVuSans-121"/>
     <use x="269.34375" xlink:href="#DejaVuSans-49"/>
     <use x="332.966797" xlink:href="#DejaVuSans-107"/>
     <use x="390.876953" xlink:href="#DejaVuSans-64"/>
     <use x="490.876953" xlink:href="#DejaVuSans-51"/>
     <use x="554.5" xlink:href="#DejaVuSans-48"/>
     <use x="618.123047" xlink:href="#DejaVuSans-72"/>
     <use x="693.318359" xlink:href="#DejaVuSans-122"/>
     <use x="745.808594" xlink:href="#DejaVuSans-32"/>
     <use x="777.595703" xlink:href="#DejaVuSans-49"/>
     <use x="841.21875" xlink:href="#DejaVuSans-32"/>
     <use x="873.005859" xlink:href="#DejaVuSans-80"/>
     <use x="931.558594" xlink:href="#DejaVuSans-117"/>
     <use x="994.9375" xlink:href="#DejaVuSans-98"/>
     <use x="1058.414062" xlink:href="#DejaVuSans-32"/>
     <use x="1090.201172" xlink:href="#DejaVuSans-116"/>
     <use x="1129.410156" xlink:href="#DejaVuSans-111"/>
     <use x="1190.591797" xlink:href="#DejaVuSans-32"/>
     <use x="1222.378906" xlink:href="#DejaVuSans-49"/>
     <use x="1286.001953" xlink:href="#DejaVuSans-32"/>
     <use x="1317.789062" xlink:href="#DejaVuSans-83"/>
     <use x="1381.265625" xlink:href="#DejaVuSans-117"/>
     <use x="1444.644531" xlink:href="#DejaVuSans-98"/>
     <use x="1508.121094" xlink:href="#DejaVuSans-44"/>
     <use x="1539.908203" xlink:href="#DejaVuSans-32"/>
     <use x="1571.695312" xlink:href="#DejaVuSans-109"/>
     <use x="1669.107422" xlink:href="#DejaVuSans-117"/>
     <use x="1732.486328" xlink:href="#DejaVuSans-108"/>
     <use x="1760.269531" xlink:href="#DejaVuSans-116"/>
     <use x="1799.478516" xlink:href="#DejaVuSans-105"/>
     <use x="1827.261719" xlink:href="#DejaVuSans-45"/>
     <use x="1863.345703" xlink:href="#DejaVuSans-112"/>
     <use x="1926.822266" xlink:href="#DejaVuSans-114"/>
     <use x="1965.685547" xlink:href="#DejaVuSans-111"/>
     <use x="2026.867188" xlink:href="#DejaVuSans-99"/>
     <use x="2081.847656" xlink:href="#DejaVuSans-101"/>
     <use x="2143.371094" xlink:href="#DejaVuSans-115"/>
     <use x="2195.470703" xlink:href="#DejaVuSans-115"/>
     <use x="2247.570312" xlink:href="#DejaVuSans-101"/>
     <use x="2309.09375" xlink:href="#DejaVuSans-115"/>
     <use x="2361.193359" xlink:href="#DejaVuSans-44"/>
     <use x="2392.980469" xlink:href="#DejaVuSans-32"/>
     <use x="2424.767578" xlink:href="#DejaVuSans-115"/>
     <use x="2476.867188" xlink:href="#DejaVuSans-105"/>
     <use x="2504.650391" xlink:href="#DejaVuSans-110"/>
     <use x="2568.029297" xlink:href="#DejaVuSans-103"/>
     <use x="2631.505859" xlink:href="#DejaVuSans-108"/>
     <use x="2659.289062" xlink:href="#DejaVuSans-101"/>
     <use x="2720.8125" xlink:href="#DejaVuSans-32"/>
     <use x="2752.599609" xlink:href="#DejaVuSans-109"/>
     <use x="2850.011719" xlink:href="#DejaVuSans-97"/>
     <use x="2911.291016" xlink:href="#DejaVuSans-99"/>
     <use x="2966.271484" xlink:href="#DejaVuSans-104"/>
     <use x="3029.650391" xlink:href="#DejaVuSans-105"/>
     <use x="3057.433594" xlink:href="#DejaVuSans-110"/>
     <use x="3120.8125" xlink:href="#DejaVuSans-101"/>
    </g>
    <!-- rmw_cyclonedds_cpp sync, reliable, volatile, keep_last@10 -->
    <g transform="translate(54.95375 29.7555)scale(0.12 -0.12)">
     <defs>
      <path d="M 4.203125 54.6875 
L 13.1875 54.6875 
L 24.421875 12.015625 
L 35.59375 54.6875 
L 46.1875 54.6875 
L 57.421875 12.015625 
L 68.609375 54.6875 
L 77.59375 54.6875 
L 63.28125 0 
L 52.6875 0 
L 40.921875 44.828125 
L 29.109375 0 
L 18.5 0 
z
" id="DejaVuSans-119"/>
      <path d="M 50.984375 -16.609375 
L 50.984375 -23.578125 
L -0.984375 -23.578125 
L -0.984375 -16.609375 
z
" id="DejaVuSans-95"/>
      <path d="M 2.984375 54.6875 
L 12.5 54.6875 
L 29.59375 8.796875 
L 46.6875 54.6875 
L 56.203125 54.6875 
L 35.6875 0 
L 23.484375 0 
z
" id="DejaVuSans-118"/>
     </defs>
     <use xlink:href="#DejaVuSans-114"/>
     <use x="39.363281" xlink:href="#DejaVuSans-109"/>
     <use x="136.775391" xlink:href="#DejaVuSans-119"/>
     <use x="218.5625" xlink:href="#DejaVuSans-95"/>
     <use x="268.5625" xlink:href="#DejaVuSans-99"/>
     <use x="323.542969" xlink:href="#DejaVuSans-121"/>
     <use x="382.722656" xlink:href="#DejaVuSans-99"/>
     <use x="437.703125" xlink:href="#DejaVuSans-108"/>
     <use x="465.486328" xlink:href="#DejaVuSans-111"/>
     <use x="526.667969" xlink:href="#DejaVuSans-110"/>
     <use x="590.046875" xlink:href="#DejaVuSans-101"/>
     <use x="651.570312" xlink:href="#DejaVuSans-100"/>
     <use x="715.046875" xlink:href="#DejaVuSans-100"/>
     <use x="778.523438" xlink:href="#DejaVuSans-115"/>
     <use x="830.623047" xlink:href="#DejaVuSans-95"/>
     <use x="880.623047" xlink:href="#DejaVuSans-99"/>
     <use x="935.603516" xlink:href="#DejaVuSans-112"/>
     <use x="999.080078" xlink:href="#DejaVuSans-112"/>
     <use x="1062.556641" xlink:href="#DejaVuSans-32"/>
     <use x="1094.34375" xlink:href="#DejaVuSans-115"/>
     <use x="1146.443359" xlink:href="#DejaVuSans-121"/>
     <use x="1205.623047" xlink:href="#DejaVuSans-110"/>
     <use x="1269.001953" xlink:href="#DejaVuSans-99"/>
     <use x="1323.982422" xlink:href="#DejaVuSans-44"/>
     <use x="1355.769531" xlink:href="#DejaVuSans-32"/>
     <use x="1387.556641" xlink:href="#DejaVuSans-114"/>
     <use x="1426.419922" xlink:href="#DejaVuSans-101"/>
     <use x="1487.943359" xlink:href="#DejaVuSans-108"/>
     <use x="1515.726562" xlink:href="#DejaVuSans-105"/>
     <use x="1543.509766" xlink:href="#DejaVuSans-97"/>
     <use x="1604.789062" xlink:href="#DejaVuSans-98"/>
     <use x="1668.265625" xlink:href="#DejaVuSans-108"/>
     <use x="1696.048828" xlink:href="#DejaVuSans-101"/>
     <use x="1757.572266" xlink:href="#DejaVuSans-44"/>
     <use x="1789.359375" xlink:href="#DejaVuSans-32"/>
     <use x="1821.146484" xlink:href="#DejaVuSans-118"/>
     <use x="1880.326172" xlink:href="#DejaVuSans-111"/>
     <use x="1941.507812" xlink:href="#DejaVuSans-108"/>
     <use x="1969.291016" xlink:href="#DejaVuSans-97"/>
     <use x="2030.570312" xlink:href="#DejaVuSans-116"/>
     <use x="2069.779297" xlink:href="#DejaVuSans-105"/>
     <use x="2097.5625" xlink:href="#DejaVuSans-108"/>
     <use x="2125.345703" xlink:href="#DejaVuSans-101"/>
     <use x="2186.869141" xlink:href="#DejaVuSans-44"/>
     <use x="2218.65625" xlink:href="#DejaVuSans-32"/>
     <use x="2250.443359" xlink:href="#DejaVuSans-107"/>
     <use x="2304.728516" xlink:href="#DejaVuSans-101"/>
     <use x="2366.251953" xlink:href="#DejaVuSans-101"/>
     <use x="2427.775391" xlink:href="#DejaVuSans-112"/>
     <use x="2491.251953" xlink:href="#DejaVuSans-95"/>
     <use x="2541.251953" xlink:href="#DejaVuSans-108"/>
     <use x="2569.035156" xlink:href="#DejaVuSans-97"/>
     <use x="2630.314453" xlink:href="#DejaVuSans-115"/>
     <use x="2682.414062" xlink:href="#DejaVuSans-116"/>
     <use x="2721.623047" xlink:href="#DejaVuSans-64"/>
     <use x="2821.623047" xlink:href="#DejaVuSans-49"/>
     <use x="2885.246094" xlink:href="#DejaVuSans-48"/>
    </g>
    <!-- bandwidth: 54Mbps, packet loss: 10%, delay: 0ms -->
    <g transform="translate(81.619063 43.526625)scale(0.12 -0.12)">
     <defs>
      <path d="M 11.71875 12.40625 
L 22.015625 12.40625 
L 22.015625 0 
L 11.71875 0 
z
M 11.71875 51.703125 
L 22.015625 51.703125 
L 22.015625 39.3125 
L 11.71875 39.3125 
z
" id="DejaVuSans-58"/>
      <path d="M 10.796875 72.90625 
L 49.515625 72.90625 
L 49.515625 64.59375 
L 19.828125 64.59375 
L 19.828125 46.734375 
Q 21.96875 47.46875 24.109375 47.828125 
Q 26.265625 48.1875 28.421875 48.1875 
Q 40.625 48.1875 47.75 41.5 
Q 54.890625 34.8125 54.890625 23.390625 
Q 54.890625 11.625 47.5625 5.09375 
Q 40.234375 -1.421875 26.90625 -1.421875 
Q 22.3125 -1.421875 17.546875 -0.640625 
Q 12.796875 0.140625 7.71875 1.703125 
L 7.71875 11.625 
Q 12.109375 9.234375 16.796875 8.0625 
Q 21.484375 6.890625 26.703125 6.890625 
Q 35.15625 6.890625 40.078125 11.328125 
Q 45.015625 15.765625 45.015625 23.390625 
Q 45.015625 31 40.078125 35.4375 
Q 35.15625 39.890625 26.703125 39.890625 
Q 22.75 39.890625 18.8125 39.015625 
Q 14.890625 38.140625 10.796875 36.28125 
z
" id="DejaVuSans-53"/>
      <path d="M 72.703125 32.078125 
Q 68.453125 32.078125 66.03125 28.46875 
Q 63.625 24.859375 63.625 18.40625 
Q 63.625 12.0625 66.03125 8.421875 
Q 68.453125 4.78125 72.703125 4.78125 
Q 76.859375 4.78125 79.265625 8.421875 
Q 81.6875 12.0625 81.6875 18.40625 
Q 81.6875 24.8125 79.265625 28.4375 
Q 76.859375 32.078125 72.703125 32.078125 
z
M 72.703125 38.28125 
Q 80.421875 38.28125 84.953125 32.90625 
Q 89.5 27.546875 89.5 18.40625 
Q 89.5 9.28125 84.9375 3.921875 
Q 80.375 -1.421875 72.703125 -1.421875 
Q 64.890625 -1.421875 60.34375 3.921875 
Q 55.8125 9.28125 55.8125 18.40625 
Q 55.8125 27.59375 60.375 32.9375 
Q 64.9375 38.28125 72.703125 38.28125 
z
M 22.3125 68.015625 
Q 18.109375 68.015625 15.6875 64.375 
Q 13.28125 60.75 13.28125 54.390625 
Q 13.28125 47.953125 15.671875 44.328125 
Q 18.0625 40.71875 22.3125 40.71875 
Q 26.5625 40.71875 28.96875 44.328125 
Q 31.390625 47.953125 31.390625 54.390625 
Q 31.390625 60.6875 28.953125 64.34375 
Q 26.515625 68.015625 22.3125 68.015625 
z
M 66.40625 74.21875 
L 74.21875 74.21875 
L 28.609375 -1.421875 
L 20.796875 -1.421875 
z
M 22.3125 74.21875 
Q 30.03125 74.21875 34.609375 68.875 
Q 39.203125 63.53125 39.203125 54.390625 
Q 39.203125 45.171875 34.640625 39.84375 
Q 30.078125 34.515625 22.3125 34.515625 
Q 14.546875 34.515625 10.03125 39.859375 
Q 5.515625 45.21875 5.515625 54.390625 
Q 5.515625 63.484375 10.046875 68.84375 
Q 14.59375 74.21875 22.3125 74.21875 
z
" id="DejaVuSans-37"/>
     </defs>
     <use xlink:href="#DejaVuSans-98"/>
     <use x="63.476562" xlink:href="#DejaVuSans-97"/>
     <use x="124.755859" xlink:href="#DejaVuSans-110"/>
     <use x="188.134766" xlink:href="#DejaVuSans-100"/>
     <use x="251.611328" xlink:href="#DejaVuSans-119"/>
     <use x="333.398438" xlink:href="#DejaVuSans-105"/>
     <use x="361.181641" xlink:href="#DejaVuSans-100"/>
     <use x="424.658203" xlink:href="#DejaVuSans-116"/>
     <use x="463.867188" xlink:href="#DejaVuSans-104"/>
     <use x="527.246094" xlink:href="#DejaVuSans-58"/>
     <use x="560.9375" xlink:href="#DejaVuSans-32"/>
     <use x="592.724609" xlink:href="#DejaVuSans-53"/>
     <use x="656.347656" xlink:href="#DejaVuSans-52"/>
     <use x="719.970703" xlink:href="#DejaVuSans-77"/>
     <use x="806.25" xlink:href="#DejaVuSans-98"/>
     <use x="869.726562" xlink:href="#DejaVuSans-112"/>
     <use x="933.203125" xlink:href="#DejaVuSans-115"/>
     <use x="985.302734" xlink:href="#DejaVuSans-44"/>
     <use x="1017.089844" xlink:href="#DejaVuSans-32"/>
     <use x="1048.876953" xlink:href="#DejaVuSans-112"/>
     <use x="1112.353516" xlink:href="#DejaVuSans-97"/>
     <use x="1173.632812" xlink:href="#DejaVuSans-99"/>
     <use x="1228.613281" xlink:href="#DejaVuSans-107"/>
     <use x="1282.898438" xlink:href="#DejaVuSans-101"/>
     <use x="1344.421875" xlink:href="#DejaVuSans-116"/>
     <use x="1383.630859" xlink:href="#DejaVuSans-32"/>
     <use x="1415.417969" xlink:href="#DejaVuSans-108"/>
     <use x="1443.201172" xlink:href="#DejaVuSans-111"/>
     <use x="1504.382812" xlink:href="#DejaVuSans-115"/>
     <use x="1556.482422" xlink:href="#DejaVuSans-115"/>
     <use x="1608.582031" xlink:href="#DejaVuSans-58"/>
     <use x="1642.273438" xlink:href="#DejaVuSans-32"/>
     <use x="1674.060547" xlink:href="#DejaVuSans-49"/>
     <use x="1737.683594" xlink:href="#DejaVuSans-48"/>
     <use x="1801.306641" xlink:href="#DejaVuSans-37"/>
     <use x="1896.326172" xlink:href="#DejaVuSans-44"/>
     <use x="1928.113281" xlink:href="#DejaVuSans-32"/>
     <use x="1959.900391" xlink:href="#DejaVuSans-100"/>
     <use x="2023.376953" xlink:href="#DejaVuSans-101"/>
     <use x="2084.900391" xlink:href="#DejaVuSans-108"/>
     <use x="2112.683594" xlink:href="#DejaVuSans-97"/>
     <use x="2173.962891" xlink:href="#DejaVuSans-121"/>
     <use x="2225.892578" xlink:href="#DejaVuSans-58"/>
     <use x="2259.583984" xlink:href="#DejaVuSans-32"/>
     <use x="2291.371094" xlink:href="#DejaVuSans-48"/>
     <use x="2354.994141" xlink:href="#DejaVuSans-109"/>
     <use x="2452.40625" xlink:href="#DejaVuSans-115"/>
    </g>
   </g>
   <g id="legend_1">
    <g id="patch_7">
     <path d="M 185.916875 198.76075 
L 403.448125 198.76075 
Q 405.448125 198.76075 405.448125 196.76075 
L 405.448125 168.4045 
Q 405.448125 166.4045 403.448125 166.4045 
L 185.916875 166.4045 
Q 183.916875 166.4045 183.916875 168.4045 
L 183.916875 196.76075 
Q 183.916875 198.76075 185.916875 198.76075 
z
" style="fill:#ffffff;opacity:0.8;stroke:#cccccc;stroke-linejoin:miter;"/>
    </g>
    <g id="line2d_53">
     <path d="M 187.916875 174.502937 
L 207.916875 174.502937 
" style="fill:none;stroke:#ff0000;stroke-linecap:square;stroke-width:1.5;"/>
    </g>
    <g id="line2d_54"/>
    <g id="text_18">
     <!-- Average Latency Mean N=10 (inf) -->
     <g transform="translate(215.916875 178.002937)scale(0.1 -0.1)">
      <defs>
       <path d="M 9.8125 72.90625 
L 23.09375 72.90625 
L 55.421875 11.921875 
L 55.421875 72.90625 
L 64.984375 72.90625 
L 64.984375 0 
L 51.703125 0 
L 19.390625 60.984375 
L 19.390625 0 
L 9.8125 0 
z
" id="DejaVuSans-78"/>
       <path d="M 10.59375 45.40625 
L 73.1875 45.40625 
L 73.1875 37.203125 
L 10.59375 37.203125 
z
M 10.59375 25.484375 
L 73.1875 25.484375 
L 73.1875 17.1875 
L 10.59375 17.1875 
z
" id="DejaVuSans-61"/>
       <path d="M 31 75.875 
Q 24.46875 64.65625 21.28125 53.65625 
Q 18.109375 42.671875 18.109375 31.390625 
Q 18.109375 20.125 21.3125 9.0625 
Q 24.515625 -2 31 -13.1875 
L 23.1875 -13.1875 
Q 15.875 -1.703125 12.234375 9.375 
Q 8.59375 20.453125 8.59375 31.390625 
Q 8.59375 42.28125 12.203125 53.3125 
Q 15.828125 64.359375 23.1875 75.875 
z
" id="DejaVuSans-40"/>
       <path d="M 37.109375 75.984375 
L 37.109375 68.5 
L 28.515625 68.5 
Q 23.6875 68.5 21.796875 66.546875 
Q 19.921875 64.59375 19.921875 59.515625 
L 19.921875 54.6875 
L 34.71875 54.6875 
L 34.71875 47.703125 
L 19.921875 47.703125 
L 19.921875 0 
L 10.890625 0 
L 10.890625 47.703125 
L 2.296875 47.703125 
L 2.296875 54.6875 
L 10.890625 54.6875 
L 10.890625 58.5 
Q 10.890625 67.625 15.140625 71.796875 
Q 19.390625 75.984375 28.609375 75.984375 
z
" id="DejaVuSans-102"/>
       <path d="M 8.015625 75.875 
L 15.828125 75.875 
Q 23.140625 64.359375 26.78125 53.3125 
Q 30.421875 42.28125 30.421875 31.390625 
Q 30.421875 20.453125 26.78125 9.375 
Q 23.140625 -1.703125 15.828125 -13.1875 
L 8.015625 -13.1875 
Q 14.5 -2 17.703125 9.0625 
Q 20.90625 20.125 20.90625 31.390625 
Q 20.90625 42.671875 17.703125 53.65625 
Q 14.5 64.65625 8.015625 75.875 
z
" id="DejaVuSans-41"/>
      </defs>
      <use xlink:href="#DejaVuSans-65"/>
      <use x="62.533203" xlink:href="#DejaVuSans-118"/>
      <use x="121.712891" xlink:href="#DejaVuSans-101"/>
      <use x="183.236328" xlink:href="#DejaVuSans-114"/>
      <use x="224.349609" xlink:href="#DejaVuSans-97"/>
      <use x="285.628906" xlink:href="#DejaVuSans-103"/>
      <use x="349.105469" xlink:href="#DejaVuSans-101"/>
      <use x="410.628906" xlink:href="#DejaVuSans-32"/>
      <use x="442.416016" xlink:href="#DejaVuSans-76"/>
      <use x="498.128906" xlink:href="#DejaVuSans-97"/>
      <use x="559.408203" xlink:href="#DejaVuSans-116"/>
      <use x="598.617188" xlink:href="#DejaVuSans-101"/>
      <use x="660.140625" xlink:href="#DejaVuSans-110"/>
      <use x="723.519531" xlink:href="#DejaVuSans-99"/>
      <use x="778.5" xlink:href="#DejaVuSans-121"/>
      <use x="837.679688" xlink:href="#DejaVuSans-32"/>
      <use x="869.466797" xlink:href="#DejaVuSans-77"/>
      <use x="955.746094" xlink:href="#DejaVuSans-101"/>
      <use x="1017.269531" xlink:href="#DejaVuSans-97"/>
      <use x="1078.548828" xlink:href="#DejaVuSans-110"/>
      <use x="1141.927734" xlink:href="#DejaVuSans-32"/>
      <use x="1173.714844" xlink:href="#DejaVuSans-78"/>
      <use x="1248.519531" xlink:href="#DejaVuSans-61"/>
      <use x="1332.308594" xlink:href="#DejaVuSans-49"/>
      <use x="1395.931641" xlink:href="#DejaVuSans-48"/>
      <use x="1459.554688" xlink:href="#DejaVuSans-32"/>
      <use x="1491.341797" xlink:href="#DejaVuSans-40"/>
      <use x="1530.355469" xlink:href="#DejaVuSans-105"/>
      <use x="1558.138672" xlink:href="#DejaVuSans-110"/>
      <use x="1621.517578" xlink:href="#DejaVuSans-102"/>
      <use x="1656.722656" xlink:href="#DejaVuSans-41"/>
     </g>
    </g>
    <g id="line2d_55">
     <path d="M 187.916875 189.181062 
L 207.916875 189.181062 
" style="fill:none;stroke:#800080;stroke-linecap:square;stroke-width:1.5;"/>
    </g>
    <g id="line2d_56"/>
    <g id="text_19">
     <!-- Average Latency Variance N=10 (inf) -->
     <g transform="translate(215.916875 192.681062)scale(0.1 -0.1)">
      <defs>
       <path d="M 28.609375 0 
L 0.78125 72.90625 
L 11.078125 72.90625 
L 34.1875 11.53125 
L 57.328125 72.90625 
L 67.578125 72.90625 
L 39.796875 0 
z
" id="DejaVuSans-86"/>
      </defs>
      <use xlink:href="#DejaVuSans-65"/>
      <use x="62.533203" xlink:href="#DejaVuSans-118"/>
      <use x="121.712891" xlink:href="#DejaVuSans-101"/>
      <use x="183.236328" xlink:href="#DejaVuSans-114"/>
      <use x="224.349609" xlink:href="#DejaVuSans-97"/>
      <use x="285.628906" xlink:href="#DejaVuSans-103"/>
      <use x="349.105469" xlink:href="#DejaVuSans-101"/>
      <use x="410.628906" xlink:href="#DejaVuSans-32"/>
      <use x="442.416016" xlink:href="#DejaVuSans-76"/>
      <use x="498.128906" xlink:href="#DejaVuSans-97"/>
      <use x="559.408203" xlink:href="#DejaVuSans-116"/>
      <use x="598.617188" xlink:href="#DejaVuSans-101"/>
      <use x="660.140625" xlink:href="#DejaVuSans-110"/>
      <use x="723.519531" xlink:href="#DejaVuSans-99"/>
      <use x="778.5" xlink:href="#DejaVuSans-121"/>
      <use x="837.679688" xlink:href="#DejaVuSans-32"/>
      <use x="869.466797" xlink:href="#DejaVuSans-86"/>
      <use x="930.125" xlink:href="#DejaVuSans-97"/>
      <use x="991.404297" xlink:href="#DejaVuSans-114"/>
      <use x="1032.517578" xlink:href="#DejaVuSans-105"/>
      <use x="1060.300781" xlink:href="#DejaVuSans-97"/>
      <use x="1121.580078" xlink:href="#DejaVuSans-110"/>
      <use x="1184.958984" xlink:href="#DejaVuSans-99"/>
      <use x="1239.939453" xlink:href="#DejaVuSans-101"/>
      <use x="1301.462891" xlink:href="#DejaVuSans-32"/>
      <use x="1333.25" xlink:href="#DejaVuSans-78"/>
      <use x="1408.054688" xlink:href="#DejaVuSans-61"/>
      <use x="1491.84375" xlink:href="#DejaVuSans-49"/>
      <use x="1555.466797" xlink:href="#DejaVuSans-48"/>
      <use x="1619.089844" xlink:href="#DejaVuSans-32"/>
      <use x="1650.876953" xlink:href="#DejaVuSans-40"/>
      <use x="1689.890625" xlink:href="#DejaVuSans-105"/>
      <use x="1717.673828" xlink:href="#DejaVuSans-110"/>
      <use x="1781.052734" xlink:href="#DejaVuSans-102"/>
      <use x="1816.257812" xlink:href="#DejaVuSans-41"/>
     </g>
    </g>
   </g>
  </g>
 </g>
 <defs>
  <clipPath id="pd8ba6c61d3">
   <rect height="266.112" width="357.12" x="53.328125" y="49.526625"/>
  </clipPath>
 </defs>
</svg>
